<?xml version="1.0" encoding="utf-8"?>
<!-- Generator: Adobe Illustrator 18.1.1, SVG Export Plug-In . SVG Version: 6.00 Build 0)  -->
<svg version="1.1" xmlns="http://www.w3.org/2000/svg" xmlns:xlink="http://www.w3.org/1999/xlink" x="0px" y="0px"
	 viewBox="0 0 1024 512" enable-background="new 0 0 1024 512" xml:space="preserve">
<g id="_x36_">
	<linearGradient id="SVGID_1_" gradientUnits="userSpaceOnUse" x1="512" y1="506.88" x2="512" y2="4.5798">
		<stop  offset="0" style="stop-color:#63804A"/>
		<stop  offset="0.1181" style="stop-color:#4F613F"/>
		<stop  offset="0.2594" style="stop-color:#3C4435"/>
		<stop  offset="0.4101" style="stop-color:#2E2E2C"/>
		<stop  offset="0.5726" style="stop-color:#231E27"/>
		<stop  offset="0.7552" style="stop-color:#1D1423"/>
		<stop  offset="1" style="stop-color:#1B1122"/>
	</linearGradient>
	<rect fill="url(#SVGID_1_)" width="1024" height="512"/>
</g>
<g id="_x35_">
	<g>
		<path opacity="0.6" fill="#6A765E" d="M935.2,148.5c-14.7-28.6-24.9-48.5-45-64.4c-49.6-39.3-120-22.5-136.7-18.5
			C696,79.3,615.5,125.1,606.3,196.1c-5.2,39.9,14.2,72.8,45,125.2c26.5,45.1,40.7,69.3,69.7,85.5c65.9,37,172.3,12.7,218.7-56.4
			c30.4-45.3,26.6-97,25.6-110.2C962.3,201.2,947.3,172.1,935.2,148.5z"/>
		<path opacity="0.6" fill="#4B5946" d="M675.1,82.4c-45.5,32.8-82.4,59.4-91.1,102.8c-5.3,26.3,4.5,35.5,48.3,141.2
			c37.8,91.3,39.2,105.4,59.9,117.1c24,13.6,36.6,2.7,132.2-4.5c87.8-6.6,96.8,1.2,114.4-12.5c31-24.1,16.9-58.5,39.3-162.6
			c19.9-92.7,38-97.4,29.5-129.6C988.8,63,880.9,12,792.2,25.2C744.7,32.2,711.3,56.3,675.1,82.4z"/>
		<circle fill="#F9FE9E" cx="796.2" cy="218.7" r="149.4"/>
		<path fill="#F3EE90" d="M874.5,152.6c-11.2-6.1-10.2-7.2-13.8-7.7c-7.2-1-9.2,3.8-21,7.3c-1.4,0.4-20.3,5.9-25.1-0.8
			c-2-2.8,0.3-5-1.6-10.5c-1.6-4.5-5.1-8.5-8.9-10.5c-11-5.9-26.8,3.3-26.3,6.9c0.3,2,5.5,1.4,15,6.5c4.5,2.4,9.7,5.2,9.3,7.3
			c-0.6,3.4-16.2,7.1-28.3,1.2c-13.7-6.6-10.8-19.6-23.5-26.3c-12-6.3-31-3.4-40.5,8.5c-6.3,8-9,20.9-4,28.7
			c2.4,3.9,4.6,3.2,10.9,9.3c8.3,7.9,7.5,11.8,12.5,16.2c9.3,7.9,27.9,8.6,36,0.4c7.7-7.7,3.6-20.8,10.9-23.5
			c2.3-0.8,5.6-0.6,7.3,1.2c5.1,5.5-10.1,18.9-7.3,31.6c3.9,17.7,41.9,30.1,55.5,18.6c7.3-6.2,7.1-19.1,11.3-19
			c3.7,0.1,4.2,10,10.5,11.7c6,1.7,10.2-5.9,15-4.5c7.5,2.3,2.5,22.7,10.1,26.7c8.7,4.6,35.7-11,33.2-29.6
			c-1.9-14.3-20.6-24.8-30.4-21c-6.6,2.5-5.8,10.3-13.8,13.4c-9,3.5-18.8-2.8-21.5-4.5c-6.9-4.4-14.1-12.6-12.1-16.2
			c1.5-2.8,8.8-2.7,14.2-0.4c7.6,3.3,6.7,9.2,12.5,11.3c9.8,3.5,22.1-9.5,26.7-16.2c1.6-2.3,2.3-3.9,2-5.7
			C888.9,159.3,884.1,157.9,874.5,152.6z"/>
		<path fill="#F3EE90" d="M849.6,99.6c-4.3-1.6-9.2,1.3-15.4,4.9c-4.2,2.5-6.4,3.7-7.7,6.1c-3.2,5.8-0.4,14.2,3.6,19
			c8.8,10.6,29.2,10.8,36.8,1.6c2.9-3.5,5-9.6,2.8-13.8c-2-3.9-6.1-2.7-11.7-7.7C852.5,104.8,853.7,101.1,849.6,99.6z"/>
		<g>
			<path fill="#E2DA59" d="M845.6,202.5c1.2-1.2,2.6-2.2,4.2-2.9c10.5-5.1,24.6,2.3,31.5,16.6c6.9,14.2,3.9,29.9-6.7,35
				c-1.6,0.8-3.2,1.2-4.9,1.5c7-6.8,8.3-19.9,2.5-32C866.4,208.4,855.3,201.2,845.6,202.5z"/>
			<g>
				<path fill="#F3EE72" d="M843.1,234.5c-5.8-12.1-4.5-25.2,2.5-32c9.7-1.3,20.7,5.9,26.6,18c5.8,12.1,4.5,25.2-2.5,32
					C860,253.8,849,246.6,843.1,234.5z"/>
			</g>
		</g>
		<path fill="#F3EE90" d="M710.8,179.2c-0.2-9-6-18-14-22.5c-2.3-1.3-9-5.1-16.4-3c-11.4,3.2-15,18-16.4,23.7
			c-1.4,5.5-4.3,17.5,1.8,27.3c8.8,14.2,29,11.7,29.8,19.4c0.5,5.4-8.9,12.8-17,12.1c-9.1-0.7-12.1-11-17-9.7
			c-5.4,1.4-9.5,15.6-4.9,26.1c4.2,9.6,12.4,8.9,15.8,18.8c2.7,7.8-1.8,10,0.6,18.8c2.7,10.1,11,16.2,17,20.6
			c5.6,4.1,10.7,7.9,18.2,9.1c14.3,2.3,19.6-7.9,31-4.9c8.6,2.3,7.6,8.8,17.6,14.6c9.7,5.6,27.2,9.1,39.5-0.6
			c13.3-10.4,15.9-32.5,8.5-38.9c-5.6-4.9-14.2,1.8-41.3,1.2c-15.8-0.3-17.3-2.7-17.6-3.6c-1.7-4.6,7.9-15.1,17.6-15.2
			c7.8-0.1,9.2,6.5,20,10.3c2.1,0.7,17.8,6.3,28.5-2.4c8.4-6.8,10.5-19.8,6.7-29.8c-4.5-12-17.4-19.4-27.9-18.2
			c-14,1.6-15.9,17.6-29.8,18.8c-10.5,0.9-21-7.2-26.1-14.6c-8.5-12.1-2.6-22.1-12.1-30.4c-6.5-5.6-12.8-4-15.2-9.7
			C705.4,191.2,711,188.1,710.8,179.2z"/>
		<path fill="#F3EE90" d="M817,92.4c0.2,5.7-11.3,10.8-15.8,12.8c-10.6,4.7-14.7,2.1-25.5,7.3c-8.7,4.1-7.8,6.6-13.4,7.9
			c-11.8,2.7-16-8.6-27.9-7.9c-14.3,0.8-17.9,17.6-32.8,17c-5.3-0.2-11.5-2.6-12.1-6.1c-0.7-3.8,5.7-6.4,16.4-15.2
			c15.8-12.9,16.7-19.3,23.7-19.4c10.4-0.1,17.6,14,20.6,12.1c2.7-1.7-4.6-12.1-0.6-18.8c4.7-7.8,21.6-5.6,31.6-4.3
			C791.8,79.2,816.7,84.1,817,92.4z"/>
		
			<ellipse transform="matrix(0.7428 0.6695 -0.6695 0.7428 429.3553 -501.3609)" fill="#F3EE90" cx="867.2" cy="308.1" rx="6.5" ry="8.5"/>
		<g>
			<path fill="#E2DA59" d="M750.9,248.5c-1.6,0.5-3.3,0.7-5.1,0.7c-11.7-0.4-20.8-13.4-20.3-29.2c0.5-15.8,10.4-28.3,22.1-27.9
				c1.7,0.1,3.4,0.4,5,1c-9.4,2.8-16.6,13.8-17,27.2C735.2,233.7,741.7,245.1,750.9,248.5z"/>
			<g>
				<path fill="#F3EE72" d="M767.9,221.3c-0.4,13.4-7.6,24.5-17,27.2c-9.2-3.3-15.7-14.8-15.3-28.2c0.4-13.4,7.6-24.5,17-27.2
					C761.8,196.4,768.3,207.8,767.9,221.3z"/>
			</g>
		</g>
		<path fill="#F3EE90" d="M862.6,308.1c-0.2-4.3-10.9-66.8-10.9-66.8l13.1,60.5l2.4,1v-58.7l3.6,58.7l9.6-49l-5.7,52.2l14.2-13.4
			L872,312.5l7.6,9.4l-12.4-8.9l-7.5,28.3l4.5-27.5l-39.1,6.9l-14.8-4.9l14.8,1.6l38.2-6.9l-49.8-19.2L862.6,308.1z"/>
		<path fill="#F9FE9E" d="M714.9,232.2c3.2,2.9,55,39.5,55,39.5l-52-33.5l-2.5,1l41.5,41.5l-44-39l27.8,41.4l-32.9-41l-0.6,19.5
			l-2-25.9l-12-1.3l15.1-2.5l-14.8-25.3l16.3,22.6l22.7-32.5l13.9-7l-11.6,9.3L712.6,231l48.8-21.6L714.9,232.2z"/>
		<path fill="#E2DA6F" d="M723.8,135.7c-1.2-0.7-2.1-1.6-2.9-2.7c-5.1-7.4,1.3-20.7,14.3-29.6c13-8.9,27.7-10.2,32.8-2.7
			c0.8,1.1,1.3,2.3,1.5,3.7c-6.6-4.1-18.8-2.1-29.9,5.5C728.6,117.4,722.3,128.1,723.8,135.7z"/>
		<path fill="#F3EE90" d="M753.7,130.3c-11.1,7.6-23.4,9.6-29.9,5.5c-1.5-7.6,4.8-18.3,15.9-25.9c11.1-7.6,23.4-9.6,29.9-5.5
			C771.1,111.9,764.8,122.6,753.7,130.3z"/>
		<path fill="#E2DA6F" d="M829.7,98.2c0.2-1.4,0.6-2.6,1.3-3.8c4.6-7.7,19.4-7.4,32.9,0.7c13.5,8.1,20.8,21,16.1,28.7
			c-0.7,1.2-1.6,2.1-2.7,2.9c1-7.7-5.9-18-17.4-24.9C848.3,94.9,835.9,93.6,829.7,98.2z"/>
		<path fill="#F3EE90" d="M847.1,123.1c-11.5-6.9-18.5-17.2-17.4-24.9c6.3-4.5,18.7-3.3,30.2,3.6c11.5,6.9,18.5,17.2,17.4,24.9
			C871,131.2,858.6,130,847.1,123.1z"/>
		<path fill="#E2DA6F" d="M668.4,225.5c-0.8,0.5-1.7,0.7-2.6,0.7c-5.9-0.3-10.1-13.3-9.4-29.1c0.8-15.8,6.2-28.3,12.1-28
			c0.9,0,1.7,0.4,2.5,0.9c-4.9,2.8-8.9,13.9-9.5,27.3C660.9,210.8,663.9,222.2,668.4,225.5z"/>
		<path fill="#F3EE90" d="M678,198.2c-0.6,13.4-4.7,24.5-9.5,27.3c-4.6-3.3-7.5-14.7-6.9-28.1c0.6-13.4,4.7-24.5,9.5-27.3
			C675.7,173.4,678.6,184.8,678,198.2z"/>
		<g>
			<path fill="#E2DA59" d="M914,254c1.3,0.2,2.6,0.7,3.7,1.4c7.6,4.9,6.7,19.6-1.9,32.9c-8.6,13.2-21.7,20-29.3,15.1
				c-1.1-0.7-2.1-1.7-2.8-2.8c7.6,1.3,18.2-5.2,25.6-16.5C916.6,272.8,918.3,260.4,914,254z"/>
			<g>
				<path fill="#F3EE72" d="M888.5,270.5c7.3-11.3,17.9-17.8,25.5-16.5c4.3,6.5,2.6,18.8-4.7,30c-7.3,11.3-17.9,17.8-25.6,16.5
					C879.4,294.1,881.1,281.7,888.5,270.5z"/>
			</g>
		</g>
		<g>
			<path fill="#E2DA59" d="M898.8,153.5c0.5-0.8,1.2-1.5,1.9-1.9c5.3-2.6,15.2,6.9,22,21.1c6.9,14.2,8.1,27.8,2.8,30.4
				c-0.8,0.4-1.7,0.5-2.7,0.4c2.9-4.8,1.1-16.4-4.7-28.5S904.4,154.2,898.8,153.5z"/>
			<g>
				<path fill="#F3EE72" d="M903.6,182c-5.8-12.1-7.6-23.8-4.7-28.5c5.5,0.7,13.6,9.4,19.4,21.5s7.6,23.8,4.7,28.5
					C917.4,202.7,909.4,194.1,903.6,182z"/>
			</g>
		</g>
		<path fill="#E2DA59" d="M776.6,344.8c-0.5,2-1.3,3.8-2.6,5.5c-8.3,10.9-30.4,8-49.4-6.5c-19-14.5-27.8-35-19.5-45.8
			c1.2-1.6,2.8-2.9,4.6-3.9c-2.8,11.4,5.9,28.1,22.1,40.4C748,346.6,766.4,350.6,776.6,344.8z"/>
		<path fill="#F3EE72" d="M754.5,304.4c16.2,12.3,24.9,29,22.1,40.4c-10.2,5.8-28.6,1.9-44.8-10.4c-16.2-12.3-24.9-29-22.1-40.4
			C719.9,288.2,738.3,292.1,754.5,304.4z"/>
	</g>
</g>
<g id="_x34_">
	<g>
		<g>
			<polygon fill="#78705D" points="37.9,146.6 32.7,425 69.8,425 52.7,146.6 			"/>
			<polygon fill="#78705D" points="332.6,169.7 323.1,425 369.3,425 351.8,169.7 			"/>
			<polygon fill="#78705D" points="632.3,158.1 627.3,425 663.6,425 647.2,158.1 			"/>
			<rect y="413.4" fill="#78705D" width="1024" height="11.6"/>
		</g>
		<polygon fill="#78705D" points="929.1,292.8 929.1,333.2 845.5,333.2 845.5,358.3 763.9,358.3 763.9,278.3 671.7,278.3 
			671.7,352.2 585.6,352.2 585.6,321.3 493.4,321.3 493.4,352.2 446.4,352.2 446.4,335.6 393,335.6 393,321.1 297.4,321.1 
			297.4,376.5 243,376.5 243,304.8 175.2,304.8 175.2,288.2 95.3,288.2 95.3,330.5 61.9,330.5 61.9,292.8 0,292.8 0,384.3 0,427.5 
			55.1,427.5 61.9,427.5 95.3,427.5 99.7,427.5 172.6,427.5 175.2,427.5 235.5,427.5 243,427.5 297.4,427.5 305.9,427.5 
			381.7,427.5 393,427.5 443.1,427.5 446.4,427.5 493.4,427.5 496.8,427.5 584.5,427.5 585.6,427.5 671.7,427.5 676.8,427.5 
			760.8,427.5 763.9,427.5 845.5,427.5 853.1,427.5 929.1,427.5 937.8,427.5 1024,427.5 1024,384.3 1024,292.8 		"/>
		<rect x="5.3" y="302.1" fill="#F9FE9E" width="9.1" height="13.7"/>
		<rect x="43.7" y="302.1" fill="#F9FE9E" width="9.1" height="13.7"/>
		<rect x="101.3" y="302.1" fill="#F9FE9E" width="9.1" height="13.7"/>
		<rect x="124.2" y="302.1" fill="#F9FE9E" width="9.1" height="13.7"/>
		<rect x="139.5" y="302.1" fill="#F9FE9E" width="23.5" height="13.7"/>
		<rect x="124.2" y="321.7" fill="#F9FE9E" width="9.1" height="13.7"/>
		<rect x="148.3" y="341.3" fill="#F9FE9E" width="9.1" height="13.7"/>
		<rect x="171.6" y="360.8" fill="#F9FE9E" width="9.1" height="13.7"/>
		<rect x="189.6" y="341.3" fill="#F9FE9E" width="9.1" height="13.7"/>
		<rect x="200.9" y="321.7" fill="#F9FE9E" width="9.1" height="13.7"/>
		<rect x="213.7" y="321.7" fill="#F9FE9E" width="9.1" height="13.7"/>
		<rect x="303.7" y="328.5" fill="#F9FE9E" width="9.1" height="13.7"/>
		<rect x="321.8" y="328.5" fill="#F9FE9E" width="9.1" height="13.7"/>
		<rect x="337.1" y="349.4" fill="#F9FE9E" width="9.1" height="13.7"/>
		<rect x="364.8" y="328.5" fill="#F9FE9E" width="9.1" height="13.7"/>
		<rect x="385.9" y="348.2" fill="#F9FE9E" width="9.1" height="13.7"/>
		<rect x="401.2" y="348.2" fill="#F9FE9E" width="9.1" height="13.7"/>
		<rect x="417.6" y="348.2" fill="#F9FE9E" width="9.1" height="13.7"/>
		<rect x="474.5" y="372.9" fill="#F9FE9E" width="9.1" height="13.7"/>
		<rect x="498.5" y="328" fill="#F9FE9E" width="9.1" height="13.7"/>
		<rect x="515.1" y="328" fill="#F9FE9E" width="9.1" height="13.7"/>
		<rect x="558.9" y="328" fill="#F9FE9E" width="9.1" height="13.7"/>
		<rect x="541.3" y="348.2" fill="#F9FE9E" width="9.1" height="13.7"/>
		<rect x="572.1" y="366.1" fill="#F9FE9E" width="9.1" height="13.7"/>
		<rect x="560.2" y="366.1" fill="#F9FE9E" width="9.1" height="13.7"/>
		<rect x="611.9" y="359.3" fill="#F9FE9E" width="9.1" height="13.7"/>
		<rect x="681.2" y="285.1" fill="#F9FE9E" width="9.1" height="13.7"/>
		<rect x="698.7" y="285.1" fill="#F9FE9E" width="9.1" height="13.7"/>
		<rect x="715.4" y="285.1" fill="#F9FE9E" width="9.1" height="13.7"/>
		<rect x="732.7" y="305.6" fill="#F9FE9E" width="9.1" height="13.7"/>
		<rect x="715.4" y="323.1" fill="#F9FE9E" width="9.1" height="13.7"/>
		<rect x="681.2" y="324.2" fill="#F9FE9E" width="9.1" height="13.7"/>
		<rect x="698.7" y="348.2" fill="#F9FE9E" width="9.1" height="13.7"/>
		<rect x="732.7" y="364.8" fill="#F9FE9E" width="9.1" height="13.7"/>
		<rect x="777.5" y="364.8" fill="#F9FE9E" width="9.1" height="13.7"/>
		<rect x="826.4" y="364.8" fill="#F9FE9E" width="9.1" height="13.7"/>
		<rect x="858.8" y="339.9" fill="#F9FE9E" width="9.1" height="13.7"/>
		<rect x="885.4" y="339.9" fill="#F9FE9E" width="9.1" height="13.7"/>
		<rect x="916" y="339.9" fill="#F9FE9E" width="9.1" height="13.7"/>
		<rect x="938.7" y="300.4" fill="#F9FE9E" width="9.1" height="13.7"/>
		<rect x="961.3" y="300.4" fill="#F9FE9E" width="9.1" height="13.7"/>
		<rect x="997.1" y="300.4" fill="#F9FE9E" width="9.1" height="13.7"/>
		<rect x="980.8" y="322.6" fill="#F9FE9E" width="9.1" height="13.7"/>
		<rect x="942.4" y="339.9" fill="#F9FE9E" width="9.1" height="13.7"/>
		<rect x="982.1" y="364.8" fill="#F9FE9E" width="9.1" height="13.7"/>
		<rect x="901.2" y="364.8" fill="#F9FE9E" width="9.1" height="13.7"/>
		<rect x="871.3" y="364.8" fill="#F9FE9E" width="9.1" height="13.7"/>
		<rect x="520.5" y="366.1" fill="#F9FE9E" width="9.1" height="13.7"/>
		<rect x="434.3" y="372.9" fill="#F9FE9E" width="9.1" height="13.7"/>
		<rect x="227.6" y="341.3" fill="#F9FE9E" width="9.1" height="13.7"/>
		<rect x="101.3" y="341.3" fill="#F9FE9E" width="9.1" height="13.7"/>
		<rect x="81.8" y="341.3" fill="#F9FE9E" width="9.1" height="13.7"/>
		<rect x="64.5" y="360.8" fill="#F9FE9E" width="9.1" height="13.7"/>
		<rect x="5.3" y="321.7" fill="#F9FE9E" width="9.1" height="13.7"/>
		<rect x="30.9" y="321.7" fill="#F9FE9E" width="9.1" height="13.7"/>
		<rect x="43.7" y="321.7" fill="#F9FE9E" width="9.1" height="13.7"/>
		<rect x="18.1" y="341.3" fill="#F9FE9E" width="9.1" height="13.7"/>
		<rect x="43.7" y="341.3" fill="#F9FE9E" width="9.1" height="13.7"/>
	</g>
</g>
<g id="_x33_">
	<path fill="#050505" d="M0,0v195.1c3.6,0,7-0.8,9.8-2.3c0.7,1.1,1.9,2.6,4.2,3.3c3.4,1,7.6-0.1,10-2.8c1.1,6.9,9.6,11.2,16.9,9.7
		c7.1-1.5,11.8-8.4,8.7-14.8c5.3,3,12.4,2.9,17.4-0.3c4.7-3,6.6-8.1,4.6-12.7c1.1,1.1,5.9,5.8,14.6,6.9c9.3,1.2,16.1-2.5,17.4-3.3
		c-5,8.5-1.5,17,4.1,19.2c5.9,2.3,17.3-1.2,21.8-10.7c-2.6,6.4,1.1,13.5,8.6,16.4c7.5,2.9,16.7,0.8,21.3-5
		c-2.5,7.4,3.9,14.6,12.1,15.4c7.9,0.8,16-4.5,16.4-11.9c2,8.9,12.9,13.6,21.2,11.4c6.8-1.9,11.6-8.6,9.7-15.6
		c2.3,5.6,6.9,9.5,11.8,11.6l-11.7,215.1h86.3l-8.9-220.6c7.6-1.2,15-7.1,15.7-15.3c-0.5,6.6,3.8,12.7,10.8,15.6
		c8.1,3.3,18.4,1.7,24.7-4.1c-2.2,12.7,5.6,22.5,13,23.5c7.8,1,20.2-7.3,21.5-21.5c3,14.1,19.5,21.1,29.9,18.2
		c9.3-2.6,16.3-13.9,11.4-25.6c1.2,1.1,7.6,6.7,18.3,7.1c12.1,0.5,19.7-5.9,20.8-6.8c-5.4,13.3,2.6,25.5,11.9,27.7
		c10,2.4,26.4-5.4,29.3-20.6c1.3,10.3,13.4,16.9,24.2,14.9c6.7-1.2,12.1-5.7,14.1-11.3L530,424.5h86l-8.5-210.3
		c8-3.3,15.8-11.4,16.6-22.8c1,2.1,4.3,8.3,12.6,12.1c13.1,6.1,26.8,1.1,28.1,0.6c-5.3,14.7,2.8,28.4,14,31.9
		c13.1,4,34.8-4.7,39.5-23.3c1.5,8.6,11.4,14.1,19.9,12.8c9.1-1.3,16.2-10.3,12.2-19.3c3.2,7.6,13.9,11.4,22.8,8.3
		c8.9-3,12.9-11.8,8.4-18.9c3.1,2,9.9,5.8,19.7,7.1c7.3,1,13.3,0.2,16.9-0.6c-4.3,8.5-0.5,17.4,6.6,20.5c8.5,3.7,23.2-0.3,27.8-11.5
		c0.1,9.2,10.2,15.4,18.6,14.2c7.3-1.1,13.5-7.7,12.3-15.4c3.5,4.8,10.4,7.4,17.2,6.6c6.8-0.8,12.3-4.9,13.9-10.3
		c0.3,1.8,1,3.5,2.1,5l-11.6,213.3h86l-9-223.9c4.1,6.7,13.9,9.9,22.7,7.6c7.6-2.1,12.5-7.8,12.6-14.1c2,0.6,4.2,1,6.5,1V186
		l0.1-0.1V0H0z"/>
</g>
<g id="_x32__1_">
	<g>
		<g>
			<path fill="#1A1A1A" d="M935.2,173.7c-1.2,11.1-4.3,23.9-11.2,37.3c-18,34.9-51.2,53.7-69.1,62l10.6,151.6H836l0.1,0.5l-0.8-0.2
				l0-0.2h-66.4l6.6-91.5c-26.2-21.9-59.1-55.5-81.8-102.1c-5.6-11.4-10-22.5-13.5-33.1c-0.7-0.6-1.5-1.2-2.3-1.8
				c-0.3-0.2-0.5-0.4-0.8-0.7c-0.8-0.7-1.6-1.4-2.5-2.2c-0.2-0.2-0.5-0.4-0.7-0.7c-0.2-0.2-0.4-0.3-0.6-0.5
				c-0.3-0.2-0.5-0.5-0.7-0.7c-0.1-0.1-0.1-0.1-0.2-0.2c-0.4-0.4-0.8-0.8-1.2-1.2c-0.2-0.2-0.4-0.4-0.6-0.6c-0.3-0.3-0.7-0.7-1-1
				c-0.7-0.7-1.4-1.4-2-2.1c-0.2-0.3-0.5-0.5-0.7-0.8c-0.1-0.1-0.2-0.2-0.3-0.3c0,0,0,0,0,0h0c0,0,0-0.1-0.1-0.1
				c0,0-0.1-0.1-0.1-0.1c0,0,0,0,0,0c0,0,0,0,0,0c-0.1-0.1-0.2-0.2-0.2-0.3c-0.2-0.2-0.4-0.4-0.6-0.7c-0.3-0.4-0.7-0.8-1-1.2
				c-0.3-0.4-0.7-0.8-1-1.2c-0.3-0.4-0.6-0.8-0.9-1.1c0-0.1-0.1-0.1-0.1-0.2c-0.3-0.4-0.6-0.8-0.9-1.1c-0.3-0.4-0.6-0.8-0.9-1.2
				c-0.6-0.8-1.2-1.6-1.7-2.4c-0.1-0.2-0.3-0.4-0.4-0.6c-0.2-0.3-0.5-0.7-0.7-1.1c-0.3-0.5-0.6-0.9-0.9-1.4
				c-0.4-0.7-0.9-1.4-1.3-2.1c-0.3-0.5-0.6-1.1-0.9-1.6c-0.2-0.3-0.3-0.6-0.5-0.9c-0.2-0.3-0.3-0.6-0.5-0.9
				c-0.1-0.3-0.3-0.5-0.4-0.8c-0.1-0.3-0.3-0.6-0.4-0.9c-0.1-0.2-0.2-0.5-0.4-0.7c-0.1-0.3-0.3-0.5-0.4-0.8
				c-0.1-0.3-0.3-0.6-0.4-0.9c-0.2-0.4-0.4-0.8-0.6-1.2c-0.1-0.3-0.3-0.6-0.4-1c-0.1-0.3-0.2-0.5-0.3-0.8c0-0.1,0-0.1-0.1-0.2
				c-0.1-0.3-0.2-0.5-0.3-0.8c-0.1-0.3-0.2-0.6-0.3-0.8c-0.1-0.3-0.3-0.7-0.4-1c0,0,0-0.1,0-0.1c-0.1-0.3-0.2-0.6-0.3-0.9
				c-0.1-0.3-0.2-0.7-0.4-1c-0.1-0.3-0.2-0.7-0.3-1c-0.1-0.3-0.2-0.6-0.3-0.9c0-0.1-0.1-0.2-0.1-0.2c-0.2-0.5-0.3-1.1-0.5-1.6
				c0-0.1-0.1-0.3-0.1-0.5c0-0.1-0.1-0.3-0.1-0.4c0-0.1-0.1-0.3-0.1-0.4c0-0.1-0.1-0.3-0.1-0.4c-0.1-0.2-0.1-0.5-0.2-0.7
				c-0.1-0.2-0.1-0.4-0.1-0.6c-0.1-0.2-0.1-0.5-0.2-0.7c-0.1-0.6-0.3-1.1-0.4-1.7c-0.1-0.3-0.1-0.5-0.2-0.8c-0.1-0.5-0.2-1-0.3-1.5
				c-0.5-3.1-1.1-6.2-1.6-9.3c0.2,0.7,0.3,1.3,0.5,2c0.1,0.3,0.2,0.7,0.3,1.1c0.1,0.4,0.3,0.9,0.4,1.3c0.1,0.3,0.2,0.5,0.2,0.8
				c0.1,0.4,0.2,0.7,0.4,1.1c0.2,0.7,0.5,1.5,0.8,2.3c0.1,0.3,0.2,0.6,0.3,0.8c0.1,0.2,0.1,0.4,0.2,0.6c0.1,0.4,0.3,0.8,0.5,1.2
				c0.1,0.3,0.2,0.6,0.4,1c0.2,0.4,0.3,0.8,0.5,1.2c0.1,0.2,0.2,0.4,0.3,0.6c0.1,0.2,0.2,0.4,0.3,0.6c0.1,0.2,0.2,0.4,0.3,0.6
				c0.1,0.2,0.2,0.4,0.3,0.6c0.2,0.4,0.4,0.8,0.6,1.3c0.1,0.2,0.2,0.4,0.3,0.6c0.1,0.2,0.2,0.4,0.3,0.6c0,0,0,0,0,0
				c0.1,0.2,0.2,0.5,0.3,0.7c0.2,0.4,0.4,0.9,0.7,1.3c0.1,0.2,0.2,0.4,0.3,0.7c0.1,0.2,0.2,0.4,0.3,0.7c0.1,0.2,0.2,0.4,0.4,0.7
				c0.1,0.2,0.2,0.4,0.4,0.7c0.1,0.2,0.2,0.4,0.4,0.7c0.1,0.2,0.2,0.4,0.3,0.6c0.8,1.4,1.6,2.8,2.5,4.2c0.1,0.2,0.3,0.5,0.4,0.7
				c0,0.1,0.1,0.1,0.1,0.2c0.3,0.4,0.5,0.8,0.8,1.2c0.1,0.2,0.2,0.3,0.3,0.5c0.2,0.3,0.4,0.6,0.6,0.8c0.1,0.1,0.2,0.3,0.3,0.4
				c0.1,0.1,0.2,0.3,0.3,0.4c0.2,0.2,0.3,0.4,0.5,0.6c0.1,0.1,0.2,0.2,0.3,0.4c0.1,0.2,0.3,0.4,0.4,0.6c0.3,0.4,0.6,0.7,0.8,1.1
				c0.4,0.5,0.7,0.9,1.1,1.4c0.2,0.2,0.4,0.5,0.6,0.7c0.2,0.2,0.4,0.5,0.6,0.7c0.2,0.2,0.4,0.5,0.6,0.7c0.4,0.5,0.8,0.9,1.2,1.4v0
				c0.1,0.1,0.1,0.1,0.2,0.2c0.2,0.2,0.4,0.5,0.6,0.7c3.6,4,7.2,7.6,10.8,10.7c-1.9-6.8-3.4-13.3-4.6-19.5c-1.6-8-2.6-15.5-3.3-22.3
				c0.3-0.5,0.6-1,1-1.5c1.3-2,2.6-4,3.8-6c0.9,6.5,2.3,14.9,4.9,24.6c4.3,15.8,11.7,35.2,24.8,55.3c6.9-7.3,15.7-18.5,21.6-33.5
				c0.2-0.4,0.3-0.8,0.5-1.2c0.3-0.8,0.6-1.6,0.8-2.3c0.1-0.3,0.2-0.6,0.3-0.9c0,0,0,0,0,0c0.1-0.3,0.2-0.6,0.3-0.9
				c0.2-0.6,0.4-1.2,0.5-1.7c0.1-0.4,0.2-0.8,0.3-1.1c0.2-0.6,0.4-1.2,0.5-1.8c0.1-0.2,0.1-0.5,0.2-0.7c0.4-1.4,0.7-2.8,1-4.1
				c0.2-0.7,0.3-1.4,0.4-2.1c0.1-0.7,0.3-1.4,0.4-2.1c0.1-0.4,0.1-0.9,0.2-1.3c0.1-0.4,0.1-0.9,0.2-1.3c0-0.2,0-0.3,0.1-0.5
				c0.1-0.4,0.1-0.9,0.2-1.3c0-0.4,0.1-0.7,0.1-1.1c0-0.2,0-0.4,0-0.5c0-0.4,0.1-0.9,0.1-1.3c0-0.3,0-0.6,0.1-0.9
				c0-0.4,0.1-0.8,0.1-1.2c0-0.2,0-0.4,0-0.6c0-1,0.1-1.9,0.1-2.8c0-0.9,0-1.9,0-2.7c0-0.5,0-1,0-1.5c0-0.2,0-0.3,0-0.5
				c0-0.3,0-0.5,0-0.8c0-0.2,0-0.4,0-0.6c0-0.2,0-0.4,0-0.6c0-0.3,0-0.6-0.1-0.8c0-0.3,0-0.5-0.1-0.8c0-0.5-0.1-1-0.1-1.5
				c-0.1-0.6-0.1-1.2-0.2-1.8c0-0.2,0-0.4-0.1-0.6c1,0.7,2,1.5,3,2.2c0.4,0.3,0.7,0.5,1.1,0.8c0.1,0,0.1,0.1,0.2,0.1
				c0,0.3,0.1,0.6,0.1,0.9c0.1,0.4,0.1,0.9,0.2,1.4c0.1,0.5,0.1,0.9,0.2,1.4c0.1,0.6,0.1,1.3,0.2,2c0.1,0.7,0.1,1.4,0.2,2
				c0,0.2,0,0.5,0.1,0.7c0,0.2,0,0.5,0,0.7c0,0.6,0.1,1.2,0.1,1.8c0,0.4,0,0.8,0.1,1.3c0,0.3,0,0.6,0,1c0,0.1,0,0.3,0,0.4
				c0,0.5,0,1,0,1.6c0,0.3,0,0.5,0,0.8c0,0.1,0,0.1,0,0.2c0,0.5,0,0.9,0,1.4c0,0.5,0,1.1,0,1.6c0,0.5,0,1.1,0,1.6
				c0,1.1-0.1,2.3-0.2,3.5c0,0.3,0,0.5-0.1,0.8c0,0.5-0.1,1-0.1,1.5c0,0.3-0.1,0.6-0.1,1c0,0.2,0,0.5-0.1,0.7
				c-0.1,0.7-0.1,1.3-0.2,2c0,0.4-0.1,0.7-0.1,1.1c0,0.2-0.1,0.5-0.1,0.7c0,0.2-0.1,0.5-0.1,0.7c-0.1,0.6-0.2,1.2-0.3,1.8
				c-0.1,0.5-0.1,0.9-0.2,1.4c-0.3,1.6-0.6,3.2-0.9,4.8c-0.1,0.4-0.2,0.9-0.3,1.3c-0.3,1.2-0.6,2.4-0.9,3.7
				c-4.6,18.1-12.7,32.3-19.6,42c5.6,7.2,12,14.5,19.2,21.7c15.5,15.3,31.9,27.1,46.7,35.9l7.9-108.9l1.8-24.6l1.9-26.2h54.5l2.4,35
				l0.8,11.7l4.5,63.8v0l0.2,3.5c12.1-4.2,27.1-11.1,40.7-22.7c0.2-0.2,0.5-0.4,0.7-0.6c0.1-0.1,0.2-0.2,0.3-0.3
				c0.1-0.1,0.2-0.2,0.3-0.3c0.2-0.2,0.5-0.4,0.7-0.6c1.1-1,2.2-2,3.3-3c0.4-0.4,0.8-0.8,1.3-1.3c0.3-0.3,0.6-0.6,0.9-0.9
				c0.4-0.4,0.7-0.8,1.1-1.2c0.9-0.9,1.7-1.8,2.5-2.8c0.2-0.2,0.3-0.4,0.5-0.6c0.2-0.2,0.3-0.4,0.5-0.6c0.2-0.2,0.3-0.4,0.5-0.6
				c0.2-0.3,0.5-0.6,0.7-0.9c0.3-0.3,0.6-0.7,0.8-1c0.5-0.7,1.1-1.4,1.6-2.1c0.3-0.4,0.5-0.7,0.8-1.1c0.3-0.3,0.5-0.7,0.7-1.1
				c0.2-0.3,0.5-0.7,0.7-1.1c0.3-0.4,0.6-0.8,0.8-1.3c0.6-1,1.3-2,1.9-3c0.2-0.3,0.3-0.6,0.5-0.8c0.2-0.3,0.3-0.6,0.5-0.8
				c0.2-0.3,0.3-0.6,0.5-0.8c0.3-0.5,0.5-1,0.8-1.4c0.2-0.4,0.4-0.7,0.6-1.1c0.3-0.6,0.6-1.1,0.8-1.7c0.2-0.4,0.4-0.9,0.6-1.3
				c0,0,0,0,0,0c0.1-0.3,0.3-0.6,0.4-0.9c0.2-0.5,0.4-0.9,0.6-1.3c0.2-0.4,0.4-0.8,0.5-1.3c0.4-0.8,0.7-1.7,1-2.5
				c0.1-0.2,0.2-0.4,0.2-0.6c0.1-0.4,0.3-0.8,0.4-1.2c0,0,0-0.1,0-0.1c0,0,0,0,0-0.1c0,0,0,0,0,0c0.1-0.2,0.1-0.4,0.2-0.6
				c0.1-0.3,0.2-0.7,0.4-1c0.1-0.4,0.3-0.8,0.4-1.2c0-0.1,0-0.1,0.1-0.2c0.2-0.5,0.3-1.1,0.5-1.6c0.1-0.4,0.3-0.9,0.4-1.3
				c0.1-0.4,0.2-0.7,0.3-1.1c0.1-0.5,0.3-1,0.4-1.6c0.1-0.4,0.2-0.8,0.3-1.2c0.2-0.8,0.4-1.5,0.5-2.2c0-0.1,0-0.2,0.1-0.3
				c3.1-14.8,1.9-26.4,1.5-29.9c2.4,2.3,4.8,4.6,7.3,7c0.1,0.5,0.2,1,0.3,1.5v0c0.1,0.7,0.2,1.4,0.4,2.2c0,0.2,0,0.3,0.1,0.5
				c0.1,0.5,0.1,1,0.2,1.5c0,0.3,0.1,0.6,0.1,0.9c0,0,0,0.1,0,0.1c0,0.3,0.1,0.5,0.1,0.8c0,0.1,0,0.1,0,0.2c0,0.1,0,0.3,0,0.4
				c0.1,0.9,0.2,1.9,0.3,2.9c0,0.2,0,0.3,0,0.5c0,0.2,0,0.3,0,0.5c0,0.2,0,0.4,0,0.7c0,0.1,0,0.2,0,0.3c0,0.3,0,0.6,0.1,1
				c0,0,0,0.1,0,0.1c0,0.2,0,0.5,0,0.7c0,0.6,0,1.2,0.1,1.8c0,0.3,0,0.7,0,1C935.8,165.3,935.7,169.3,935.2,173.7z"/>
			<path fill="#050505" d="M643.9,134.4c2.6,10.4,8.2,25.2,21.1,40.2c-0.2,2.7-0.3,5.5-0.5,8.2c-2.6-3.1-5.2-6.5-7.6-10.3
				c-7.1-11.2-10.1-21.6-11.5-28.8C644.9,140.6,644.4,137.5,643.9,134.4z"/>
			<path fill="#1A1A1A" d="M357.1,113.3c-0.6,26.6-6.8,87.8-59,147c-26.4,30-56.4,50.1-79.4,62.9c4.6,35.3,10.1,69,16.2,101.2H112.5
				c-1.1-55,0.2-113.7,4.6-175.8c0.6-7.8,1.2-15.6,1.8-23.3L80.5,186l-15.5-65.3h18.1l20.8,54.6l18.3,14.4
				c3.3-32.5,7.4-63.9,12-94.1h70.1c-0.2,48,1.7,99.1,6.3,153c0.9,10,1.8,19.8,2.8,29.6c20.7-8.9,52.4-25.7,79.3-54.9
				c42.4-46,46.5-94,46.9-112.2C345.5,111.9,351.3,112.6,357.1,113.3z"/>
			<polygon points="173.6,424.5 164.8,275.6 180.3,375.8 185.1,372.4 200,424.5 			"/>
			<path fill="#1A1A1A" d="M665.5,184c0.7,0.8,1.3,1.5,2,2.2C666.8,185.5,666.2,184.8,665.5,184z"/>
			<path fill="#1A1A1A" d="M667.5,186.2c0.7,0.7,1.3,1.4,2,2.1C668.8,187.7,668.2,187,667.5,186.2z"/>
			<path d="M127.1,423.3l-7.2,1.2h-7.4c-1.1-55,0.2-113.7,4.6-175.8c0.6-7.8,1.2-15.6,1.8-23.3L80.5,186l-12.2-51.4l9.7-6.6
				l16.5,48.6c0,0,34.1,29.4,35.2,30.7C130.8,208.7,127.1,423.3,127.1,423.3z"/>
			<polygon points="808.4,153 808.4,257.2 816.2,191.1 816.2,147 			"/>
			<path d="M140.9,136.9c-1.7,11.7-3,24.1-3.9,37c-1.8,27.2-1.1,52.4,1.1,75.2c1.6-24.2,4-49.5,7.5-75.8
				c3.3-25.2,7.3-49.3,11.7-72.2C151.9,113.1,146.4,125,140.9,136.9z"/>
			<path d="M170.1,123.7c-1.3,6-2.3,12.6-2.8,19.8c-0.9,14.2,0.6,26.8,2.8,37c0.8-11.1,2.4-23.5,5.4-37c2.9-13.2,6.7-25.1,10.7-35.6
				C180.8,113.2,175.4,118.5,170.1,123.7z"/>
			<polygon points="126,321.2 138.8,314.1 144.9,246.2 146.7,321.2 126,367.6 			"/>
			<path opacity="0.6" fill="#4B5946" d="M356.3,128.3c-2.8,30.8-14.1,82.2-58.1,132.1c-26.4,30-56.4,50.1-79.4,62.9
				c4.6,35.3,10.1,69,16.2,101.2h-14.1l-16.4-115.2c22.9-10.2,63-31.3,96.4-69.5C341.6,193,349.9,146.4,352,125
				C353.4,126.1,354.9,127.2,356.3,128.3z"/>
			<path fill="#4B5946" d="M213.5,278.3l-9.1,3.4c-3.1-16.5-5.6-34.2-7.2-52.9c-2.6-30.8-2.2-59.5,0-85.6c1.5,2.6,3.7,4.5,6.3,5.4
				c0.5,0.2,1,0.3,1.5,0.4c0.9,32,2.7,65.3,5.7,99.7C211.5,258.7,212.5,268.5,213.5,278.3z"/>
			<path opacity="0.6" fill="#4B5946" d="M935.2,173.7c-1.2,11.1-4.3,23.9-11.2,37.3c-18,34.9-51.2,53.7-69.1,62l10.6,151.6h-10.8
				l-5.8-159.8c13.3-5.8,42.8-20.5,63.8-49.8c9.6-13.4,15.1-26.5,18.2-38.3c3.3-12.5,3.8-23.4,3.5-31.3c0.1,0.7,0.2,1.4,0.4,2.2
				c0,0.2,0,0.3,0.1,0.5c0.1,0.5,0.1,1,0.2,1.5c0,0.3,0.1,0.6,0.1,0.9c0,0,0,0.1,0,0.1c0,0.3,0.1,0.5,0.1,0.8c0,0.1,0,0.1,0,0.2
				c0,0.1,0,0.3,0,0.4c0.1,0.9,0.2,1.9,0.3,2.9c0,0.2,0,0.3,0,0.5c0,0.2,0,0.3,0,0.5c0,0.2,0,0.4,0,0.7c0,0.1,0,0.2,0,0.3
				c0,0.3,0,0.6,0.1,1c0,0,0,0.1,0,0.1c0,0.2,0,0.5,0,0.7c0,0.6,0,1.2,0.1,1.8c0,0.3,0,0.7,0,1C935.8,165.3,935.7,169.3,935.2,173.7
				z"/>
			<path d="M345.1,119.9c-4.5,27.6-20.3,92.1-86.9,141.6c-17.6,13.1-35.7,22.8-52.3,30.1l-1.5-9.9l8.4-10.5c0.2,2.4,0.5,4.7,0.7,7.1
				c20.7-8.9,52.4-25.7,79.3-54.9c38.2-41.3,45.3-84.3,46.7-105.8C341.3,118.3,343.2,119.1,345.1,119.9z"/>
			<path opacity="0.6" fill="#4B5946" d="M778.7,287.9c-11-5.5-24.5-13.5-38.1-24.8c-14.9-12.3-24.9-24.5-31.6-34
				c6.8-8.7,14.8-21.1,20.3-36.9c6.9-20.2,6.8-37.8,5.4-49.8c0.1,0,0.1,0.1,0.2,0.1c1.6,10.9,2.3,27-2.5,45.8
				c-4.6,18.1-12.7,32.3-19.6,42c5.6,7.2,12,14.5,19.2,21.7C747.5,267.3,763.9,279,778.7,287.9z"/>
			<path d="M721.3,197c-4.9,9.5-10.7,17.5-16.2,24l-1.9-4.2c6.9-7.3,15.7-18.5,21.6-33.5c7.3-18.6,6.9-34.7,5.7-44.1
				c1,0.7,2,1.5,3,2.2C734.1,155.1,732.5,175.2,721.3,197z"/>
			<polygon points="778.7,287.9 787.1,293.2 796.7,154.4 788.3,154.4 			"/>
			<polygon points="122.3,189.7 128.2,194.7 134.8,129.4 129.6,128.1 			"/>
			<polygon points="823.2,163.2 819.6,282.8 826.5,339.1 826.5,281.9 836.7,155.6 			"/>
			<path d="M790,312.7c-0.1,37.3-0.1,74.6-0.2,111.9h-21l6.6-91.5c-26.2-21.9-59.1-55.5-81.8-102.1c-5.6-11.4-10-22.5-13.5-33.1
				c-0.7-0.6-1.5-1.2-2.3-1.8c-0.3-0.2-0.5-0.4-0.8-0.7c-0.8-0.7-1.6-1.4-2.5-2.2c-0.2-0.2-0.5-0.4-0.7-0.7
				c-0.2-0.2-0.4-0.3-0.6-0.5c-0.3-0.2-0.5-0.5-0.7-0.7c-0.1-0.1-0.1-0.1-0.2-0.2c-0.3-0.3-0.5-0.5-0.8-0.8
				c-0.1-0.1-0.3-0.3-0.4-0.4c-0.2-0.2-0.4-0.4-0.6-0.6c-0.3-0.3-0.7-0.7-1-1c-0.7-0.7-1.4-1.4-2-2.1c-0.2-0.3-0.5-0.5-0.7-0.8
				c-0.1-0.1-0.2-0.2-0.3-0.3c0,0,0,0,0,0h0c0,0,0-0.1-0.1-0.1c0,0-0.1-0.1-0.1-0.1c0,0,0,0,0,0c0,0,0,0,0,0
				c-0.1-0.1-0.2-0.2-0.2-0.3c-0.2-0.2-0.4-0.4-0.6-0.7c-0.3-0.4-0.7-0.8-1-1.2c-0.3-0.4-0.7-0.8-1-1.2c-0.3-0.4-0.6-0.8-0.9-1.1
				c0-0.1-0.1-0.1-0.1-0.2c-0.3-0.4-0.6-0.8-0.9-1.1c-0.3-0.4-0.6-0.8-0.9-1.2c-0.6-0.8-1.2-1.6-1.7-2.4c-0.1-0.2-0.3-0.4-0.4-0.6
				c-0.2-0.3-0.5-0.7-0.7-1.1c-0.3-0.5-0.6-0.9-0.9-1.4c-0.4-0.7-0.9-1.4-1.3-2.1c-0.3-0.5-0.6-1.1-0.9-1.6
				c-0.2-0.3-0.3-0.6-0.5-0.9c-0.2-0.3-0.3-0.6-0.5-0.9c-0.1-0.3-0.3-0.5-0.4-0.8c-0.1-0.3-0.3-0.6-0.4-0.9
				c-0.1-0.2-0.2-0.5-0.4-0.7c-0.1-0.3-0.3-0.5-0.4-0.8c-0.1-0.3-0.3-0.6-0.4-0.9c-0.2-0.4-0.4-0.8-0.6-1.2c-0.1-0.3-0.3-0.6-0.4-1
				c-0.1-0.3-0.2-0.5-0.3-0.8c0-0.1,0-0.1-0.1-0.2c-0.1-0.3-0.2-0.5-0.3-0.8c-0.1-0.3-0.2-0.6-0.3-0.8c-0.1-0.3-0.3-0.7-0.4-1
				c0,0,0-0.1,0-0.1c-0.1-0.3-0.2-0.6-0.3-0.9c-0.1-0.3-0.2-0.7-0.4-1c-0.1-0.3-0.2-0.7-0.3-1c-0.1-0.3-0.2-0.6-0.3-0.9
				c0-0.1-0.1-0.2-0.1-0.2c-0.2-0.5-0.3-1.1-0.5-1.6c0-0.1-0.1-0.3-0.1-0.5c0-0.1-0.1-0.3-0.1-0.4c0-0.1-0.1-0.3-0.1-0.4
				c0-0.1-0.1-0.3-0.1-0.4c-0.1-0.2-0.1-0.5-0.2-0.7c-0.1-0.2-0.1-0.4-0.1-0.6c-0.1-0.2-0.1-0.5-0.2-0.7c-0.1-0.6-0.3-1.1-0.4-1.7
				c-0.1-0.3-0.1-0.5-0.2-0.8c-0.1-0.5-0.2-1-0.3-1.5c-0.5-3.1-1.1-6.2-1.6-9.3c0.2,0.7,0.3,1.3,0.5,2c0.1,0.3,0.2,0.7,0.3,1.1
				c0.1,0.4,0.3,0.9,0.4,1.3c0.1,0.3,0.2,0.5,0.2,0.8c0.1,0.4,0.2,0.7,0.4,1.1c0.2,0.7,0.5,1.5,0.8,2.3c0.1,0.3,0.2,0.6,0.3,0.8
				c0.1,0.2,0.1,0.4,0.2,0.6c0.1,0.4,0.3,0.8,0.5,1.2c0.1,0.3,0.2,0.6,0.4,1c0.2,0.4,0.3,0.8,0.5,1.2c0.1,0.2,0.2,0.4,0.3,0.6
				c0.1,0.2,0.2,0.4,0.3,0.6c0.1,0.2,0.2,0.4,0.3,0.6c0.1,0.2,0.2,0.4,0.3,0.6c0.2,0.4,0.4,0.8,0.6,1.3c0.1,0.2,0.2,0.4,0.3,0.6
				c0.1,0.2,0.2,0.4,0.3,0.6c0,0,0,0,0,0c0.1,0.2,0.2,0.5,0.3,0.7c0.2,0.4,0.4,0.9,0.7,1.3c0.1,0.2,0.2,0.4,0.3,0.7
				c0.1,0.2,0.2,0.4,0.3,0.7c0.1,0.2,0.2,0.4,0.4,0.7c0.1,0.2,0.2,0.4,0.4,0.7c0.1,0.2,0.2,0.4,0.4,0.7c0.1,0.2,0.2,0.4,0.3,0.6
				c0.8,1.4,1.6,2.8,2.5,4.2c0.1,0.2,0.3,0.5,0.4,0.7c0,0.1,0.1,0.1,0.1,0.2c0.3,0.4,0.5,0.8,0.8,1.2c0.1,0.2,0.2,0.3,0.3,0.5
				c0.2,0.3,0.4,0.6,0.6,0.8c0.1,0.1,0.2,0.3,0.3,0.4c0.1,0.1,0.2,0.3,0.3,0.4c0.2,0.2,0.3,0.4,0.5,0.6c0.1,0.1,0.2,0.2,0.3,0.4
				c0.1,0.2,0.3,0.4,0.4,0.6c0.3,0.4,0.6,0.7,0.8,1.1c0.4,0.5,0.7,0.9,1.1,1.4c0.2,0.2,0.4,0.5,0.6,0.7c0.1,0.1,0.2,0.2,0.3,0.3
				c0.3,0.3,0.6,0.7,0.9,1.1c0.4,0.5,0.8,0.9,1.2,1.4v0c0.1,0.1,0.1,0.1,0.2,0.2c0.2,0.2,0.4,0.5,0.6,0.7c3.6,4,7.2,7.6,10.8,10.7
				c-1.9-6.8-3.4-13.3-4.6-19.5c-1.6-8-2.6-15.5-3.3-22.3c0.3-0.5,0.6-1,1-1.5c1,6.5,2.5,14.1,4.8,22.5c6.3,23.3,18.5,53,42.8,83.4
				C741.5,279.3,769.5,299.9,790,312.7z"/>
			<polygon fill="#4B5946" points="852.7,242.2 847.2,244.5 842.9,153 847.1,163.2 			"/>
			<path d="M930,167.3c-2.9,11.1-10.4,32.3-31.6,53.2c-18.1,17.8-38.4,27.5-50.6,32.4l-0.6-8.4l5.3-5.8l0.2,3.5
				c12.1-4.2,27.1-11.1,40.7-22.7c20-17,28.5-36.7,31.9-52.7C926.8,167,928.4,167.2,930,167.3z"/>
			<path fill="#141414" d="M1024,0v168.5c-4,11-6,11.5-6,11.5c-4.2,1-9.3-5.5-12.3-4.1c-2,0.9-1,4.4-2.8,4.8
				c-1.9,0.5-4.3-3.2-6.1-2.7c-1.2,0.4-0.8,2.3-2.2,3c-1.4,0.6-3.5-0.2-5.4-1.2c-2.7,9.1-13.1,13-19.1,11c-4.8-1.6-7.9-7.3-6.6-13.5
				c-5.4,3.6-12.6,4.4-18.3,2.2c-5.6-2.2-7.6-6.5-8-7.5c-7.6,8.3-19.8,8.9-24.5,5.1c-3.7-2.9-3.9-9.4,0.3-15.1
				c-3,0.6-9.4,1.4-17-0.4c-6-1.5-10.1-4-12.3-5.6c4.1,6,3.2,12.5-0.7,15.1c-4.8,3.2-16.3,1.7-22.5-6.5c-0.1,0.4-1.3,6.9-8.8,9.5
				c-5.4,1.9-11.7,1-16.2-2.1c-1.4,6.9-9.2,11.8-17.8,11.4c-8.3-0.4-15.1-5.8-15.8-12.5c-3.5,6.8-12.7,9.7-19.6,7.4
				c-5.3-1.8-8.8-6.5-8.5-11.7c-2.5,5.1-9.8,7.1-14.9,4.9c-4.5-2-6.6-6.9-4.1-11.2c-4,0.6-8-0.5-10.3-3c-2.9-3-1.9-6.4-1.8-6.9
				c-3,6.1-11.8,8.5-18,5.8c-3.8-1.6-6.1-5-6.2-8.7c-1.3,2-3.3,3.6-5.9,4.5c-5,1.8-11,0.7-14.8-2.7c3.4,4.2,2.4,9.3-1.1,11.7
				c-4.2,2.8-12.8,1.9-16.7-3.7c-0.8,6.8-8.4,11.6-16.2,10.8c-7.1-0.7-12.7-5.8-12.6-11.9c-4.1,7.4-14.8,9.5-21,6.3
				c-5.8-3-7.9-11.1-2.1-17.1c-2.6,2.3-6.8,2.9-10,1.4c-2.8-1.3-4.2-3.9-3.7-6.5c-3.5,6.7-11.9,9.5-16.8,7.8c-2.1-0.7-3.9-2.4-5-4.6
				c-1.5,3.2-4.4,5.6-7.4,6.3c-5,1.2-12.2-1.5-15.8-7.1c0.4,4.1-1.8,8-5.3,9.6c-5.6,2.6-15.5,0.2-18.8-7c1.6,9-7.2,16.6-16.5,16.6
				c-9.4,0-18.3-7.6-16.7-16.6c-5.5,11.3-19.2,15.2-25.8,12.2c-4.9-2.2-7.9-9-5.6-16.4c-3.6,5.3-11.3,8-17.7,6.3
				c-7-1.8-11.6-8.7-9.1-15.5c-8.4,6.8-19.6,6.3-23.1,2.7c-3.1-3.2-1.8-10.2,5-15.5c-5.2,0-11.6-0.6-14.4-4c-2.7-3.3-0.4-7.2-3-8.5
				c-2.7-1.4-6.4,2-12.8,2.8c-6.1,0.8-11.5-1.2-14.9-2.8c3.2,5.6-0.1,12.3-7.1,14.5c-6.8,2.2-14.8-0.6-17.4-6.3
				c0,0,1.8,9.9-2.3,15.8c-4.1,6-15.6,9.9-26.1,7.7c-10.5-2.2-15.2-9.4-16-10.7c0.5,6.4-5.8,11.4-11.9,11.4
				c-5.3,0-10.6-3.8-11.6-8.9c-1,4.2-5.1,7.4-9.7,7.9c-3.7,0.4-7.5-1-10-3.5c0.2,3.3-1.2,6.2-3.5,7.4c-4.2,2.3-13.6,0.6-18-6.4
				c0.2,7.7-8,13.9-17.1,13.5c-8.6-0.4-15.7-6.5-15.3-13.8c-3.5,10.4-15,15.1-22.3,13.8c-0.5-0.1-1-0.2-1.5-0.4
				c-2.5-0.9-4.8-2.8-6.3-5.4c-2.4-4.1-2.9-9.9,0.3-15.6c-7,5.9-16.2,5.9-19.2,3.1c-2.4-2.3-1.7-7.4,2.5-11.8
				c-1.5,1.4-5.1,4.2-10.7,4.8c-9.7,1.1-16.1-5.3-16.4-5.5c5.1,6.9,1.8,15.2-4.8,17.9c-7,2.9-18.2-0.4-21.5-8.7
				c0,5.4-3.6,9.9-8.4,11.1c-6,1.5-14.7-2.3-16.9-9.7c0.6,4-1.7,7.7-5.5,9.3c-5.3,2.2-13.3-0.2-15.8-5.9c1.6,6.2-3.8,11.7-10.1,12.2
				c-5.2,0.4-10.6-2.6-12.3-7.4c0.7,5.6-4.4,10.2-10,10.5c-6.1,0.4-12.4-4.4-11.7-10.5c-2.2,3.4-7,5.1-11.4,4.1
				c-3.7-0.8-6.6-3.5-7.1-6.7c-2.9,5.1-10.3,6.5-14.2,4.4c-0.5-0.2-0.9-0.5-1.2-0.9V0H1024z"/>
			<polygon fill="#020202" points="140,424.5 123.7,372.2 117.6,424.5 			"/>
			<path fill="#0A0A0A" d="M1024,0v119c-0.2,0.3-1.8,2.7-5.3,3.2c-2.4,0.3-4.2-0.4-4.8-0.6c-0.3,0.5-3.1,5.5-9.8,6.6
				c-5.6,0.9-11.7-1.2-14.9-5.5c-1.4,1-5.6,4-12.3,4.6c-7,0.7-12.2-1.6-13.8-2.4c-0.7,1.1-4.3,6.1-11.8,7.7
				c-7.3,1.6-15.5-0.7-20.7-5.8c-2,0.6-8.8,2.4-16.9,0.3c-8.1-2.1-12.3-6.7-13.5-8.1c-8.8,6.7-21.6,6.9-28.6,1.7
				c-7.5-5.5-5.2-14.6-5.1-15.1c-2,0.9-11.2,4.7-22.7,2.3c-10-2.1-15.5-7.6-17-9.3c0,0.5-0.2,9.4-9.4,14c-7.4,3.6-17.3,2.8-24.3-2.1
				c-0.1,0.4-2.1,6.6-9.5,8.5c-5.8,1.5-12.4-0.2-16.3-4.3c-4.2,3.9-10.9,5.5-17.1,3.9c-6.1-1.5-10.5-5.9-11.1-11
				c-5.9,4.6-15,5-21.2,1.4c-5.5-3.3-7.8-9.2-5.5-14.7c-2.1,0.5-10.1,2.1-18.8-1.1c-7.5-2.8-11.1-7.5-12.2-9.2
				c-3.9,12.7-17.4,21.1-31.3,20.7c-14.8-0.5-23.3-10.8-24.2-11.9c0.1,0.5,1,7.9-6,12.5c-5.6,3.7-14,4.1-20.7,0.9
				c-0.5,0.7-3.6,5.1-10,6.2c-6.1,1-12.7-1.4-16.4-6.2c-0.8,1.5-3.5,5.7-9.5,8.3c-9,3.9-18.1,0.9-19.3,0.5
				c0.4,6.8-5.9,12.8-14.3,13.6c-8.6,0.8-16.6-4.1-17.9-11.1c-0.3,0.2-5.5,3.5-12,1.9c-6.6-1.7-8.4-7-8.4-7.3
				c-2.5,3-6.9,4.3-10.8,3.4c-4.7-1.1-7.9-5.5-6.3-10c-5.8,1.8-12.2,0.6-16.1-2.8c-4.7-4.2-3.3-9.7-3.1-10.2
				c-1.6-0.2-3.5-0.5-5.7-1.3c-3.9-1.4-6.5-3.4-7.8-4.7c-1.5,3.6-5.5,6.2-10,6.4c-5.7,0.3-9.2-3.2-9.5-3.6c-0.1,0.6-1.3,5-6.5,7.2
				c-4.3,1.8-9.7,1.5-13.8-1c-1.1,0.6-6.3,3-12.9,1.8c-4.7-0.8-7.7-3.1-8.8-4.1c-0.6,0.4-5.4,3.9-12.3,3c-7.3-0.9-10.6-5.9-10.9-6.4
				c-1.4,0.6-6.5,2.7-13.1,1.7c-6.3-1-10-4.1-11-5.1c5.2,5.2,4.8,11.5,1.4,13.9c-3.7,2.6-13.1,1.7-18.5-4.8
				c-0.9,4.3-5.1,7.7-10.3,8.4c-5.6,0.8-11.4-1.6-13.9-5.8c-2.2-0.1-4.7-0.3-7.5-0.8c-3-0.5-5.6-1.1-7.8-1.8
				c0.4,3.9-1.9,7.4-5.2,8.4c-4.5,1.4-11.4-1.4-12.9-7.3c-0.7,1.1-3.1,4.6-8.4,6.6c-4.8,1.8-9.2,1.3-10.8,1.1
				c-3,5.8-10.3,9.3-17.5,8.5c-5.8-0.6-10.8-3.9-13.1-8.5c-4.5,3.8-11.1,5.2-16.5,3.4c-5.6-1.8-7.6-6-8-6.8
				c-0.5,0.3-2.1,1.3-4.3,1.3c-2.6,0-4.9-1.4-6-3.6c-0.7,3.1-4.7,5-8.1,4.2c-3.1-0.7-5.1-3.4-4.4-6.2c-0.6,0.7-2.4,2.9-6,4.1
				c-4,1.3-7.5,0.5-8.5,0.2c0.2,5.6-5.5,9.3-9.9,8.7c-3.7-0.5-7.3-4.2-6.8-8.7c-0.8,0.3-2.7,1.1-5.2,0.9c-3.7-0.3-5.8-2.4-6.2-2.8
				c-0.5,0.5-4.3,4.4-10.8,4.6c-7.2,0.2-11.5-4.1-11.9-4.6c-0.1,0.6-1.3,4.7-6.2,6.7c-4.3,1.7-9.8,1-13.7-1.8
				c-0.8,0.5-2.7,1.6-5.5,1.8c-4.1,0.3-7-1.4-7.6-1.8c0.1,0.3,0.7,3.7-2.2,5.9c-2.7,2.1-7.3,2.3-10.9,0.4c0.2,3.2-2.6,6.1-6.4,6.7
				c-4,0.6-8.1-1.4-9.2-4.7c-0.5,2.5-3.3,4.3-6.2,4.1c-2.6-0.2-4.8-1.9-5.2-4.1c-2.1,1.5-5.1,1.7-7.4,0.6c-2.1-1-3.2-2.9-2.9-4.9
				c-1.8,3.8-6.9,5-9.9,3.6c-1.1-0.5-2-1.4-2.4-2.6V0H1024z"/>
			<path d="M164.8,196.7c0,0-2.7,60.8-2.7,61.9c0,1.1,7.5,17.7,7.5,17.7L164.8,196.7z"/>
			<polygon points="796.7,270.4 796.7,360.4 802.5,322.5 			"/>
			<path fill="#0A0A0A" d="M184.9,131.1l-14.8,49.3c0.3-8.3,1-17.2,2.3-26.6c0.9-7,2.1-13.6,3.5-19.9c0.6-2,1.1-3.9,1.7-5.9
				L184.9,131.1z"/>
			<polygon points="811,424.5 802.5,424.5 802.5,424.2 808.4,318.2 809.4,360.4 809.4,360.5 			"/>
			<polygon points="836,425 835.2,424.8 835.2,424.5 829.2,424.5 828.1,360.4 836,424.5 			"/>
			<polygon fill="#0A0A0A" points="814.1,424.5 811,424.5 809.4,360.5 			"/>
			<path fill="#0A0A0A" d="M826.5,339.1c0,0,4.8-54.2,5.2-55.2c0.4-1,0-62.3,0-62.3l-5.2,60.3V339.1z"/>
			<polygon fill="#0A0A0A" points="796.6,424.5 789.8,424.5 790,331.5 793.2,337 			"/>
			<polygon fill="#0A0A0A" points="836,424.5 836,425 835.2,424.8 835.2,424.5 828.1,360.4 844,424.5 			"/>
			<polygon fill="#0A0A0A" points="169.5,274.7 173.2,251.2 165.9,213.4 			"/>
			<polygon fill="#0A0A0A" points="211.7,424.5 200.5,424.5 200,424.5 185.1,372.4 180.3,375.8 171.4,318.4 185.4,362.5 189,359.6 
				211.6,424.5 			"/>
			<polygon fill="#0A0A0A" points="151.2,424.5 140.5,424.5 140,424.5 127.7,385.1 127.7,385.1 127.7,385.1 127.8,383.9 
				127.8,380.4 127.9,376.7 127.9,374.8 127.9,372.9 128,369.4 128.1,363 128.1,363 146.7,321.2 146.7,309.6 149.5,325.2 
				138.5,362.8 138.5,386.4 151.2,424.5 			"/>
			<path fill="#141414" d="M48.1,135.4c0-5.9-6-10.7-13.3-10.7c-1.5,0-3,0.2-4.4,0.6c-2.4-1.7-5.5-2.7-8.9-2.7
				c-5.1,0-9.5,2.3-11.8,5.7c-2.6-1.8-6-2.9-9.6-2.9v14.3v9.3v6v1.6V172c2.2,1.4,5,2.2,8.1,2.2c7.4,0,13.3-4.8,13.3-10.7
				c0-1.3-0.3-2.6-0.8-3.7c1.6,0.5,3.3,0.8,5.1,0.8c7.4,0,13.3-4.8,13.3-10.7c0-1.5-0.4-2.9-1-4.2C43.8,144.6,48.1,140.4,48.1,135.4
				z"/>
			<path fill="#141414" d="M1024,155V172c-3.2-1.9-5.2-5-5.2-8.5c0-3,1.6-5.7,4-7.6C1023.2,155.5,1023.6,155.3,1024,155z"/>
		</g>
		<polygon fill="#4B5946" points="836,425 835.2,424.8 835.2,424.5 836,424.5 		"/>
	</g>
</g>
<g id="_x31__1_">
	<rect y="424.5" fill="#333333" width="1024" height="87.5"/>
	<g>
		<path d="M565.2,439.4C531.4,444,524,448,523.9,451c-0.1,7.1,43.1,13.2,55.7,15c26.6,3.8,49,4.5,64.6,4.4c2.6,0.1,8.5-0.1,12.7-3.2
			c6.2-4.7,5-12.9,4-15.5C654.9,435.5,583,438.5,565.2,439.4z"/>
		<path d="M136.8,466.4c14.6-0.4,37.9,1.8,39.5,6.3c2.9,8.3-70.4,24.6-82.3,16.2c-5.5-3.8,3.1-11.9,3.7-12.5
			C107.6,467.1,128.9,466.6,136.8,466.4z"/>
		<ellipse fill="#1A1A1A" cx="741.2" cy="438.8" rx="73.4" ry="4.9"/>
		<ellipse fill="#1A1A1A" cx="585" cy="495.1" rx="150.4" ry="4.7"/>
		<path d="M970.8,469.5c-13.1-6-25-9.6-33.8-11.8c-10-2.5-21.6-5.3-36.7-5.2c-9.9,0.1-32.1,1.6-33.3,7.2c-1.4,6.5,26.2,15,28.2,15.6
			c7.4,1.8,17.4,3.5,29.4,3.4C945.7,478.7,961.9,473.2,970.8,469.5z"/>
		<ellipse cx="341.4" cy="452.5" rx="149.6" ry="8.6"/>
		<ellipse fill="#1A1A1A" cx="984.1" cy="498.4" rx="31.6" ry="6.7"/>
		<ellipse fill="#1A1A1A" cx="930.5" cy="506.6" rx="17.6" ry="2.8"/>
		<ellipse fill="#1A1A1A" cx="873.6" cy="487.5" rx="17.6" ry="2.8"/>
		<ellipse fill="#1A1A1A" cx="101.3" cy="441.6" rx="63.5" ry="3"/>
	</g>
	<rect y="424.5" opacity="0.3" fill="#F3EE72" width="1024" height="87.5"/>
	<path fill="#C9AC68" d="M1024,380v44.6H2.4v-44.7c9.3,0,17.6,3.7,22.6,9.3h0c-0.1-4.6,3.2-8.8,8.1-10.5c6-2.1,13.5-0.3,17.3,4.6
		c1.3-0.4,8.9-2.7,17,0.3c5.9,2.2,8.8,6,9.7,7.4c0.4-0.3,4.4-3.5,10.4-2.8c5.6,0.6,8.4,4.2,8.7,4.7c-1.2-5.2,1.1-10.3,5.7-12.8
		c6.5-3.4,17.4-1.4,22.6,6c1.5-1,4.8-2.8,9.4-3.4c8-1,13.9,2.5,15.1,3.3c6.4-3.2,14.4-3.4,20.8-0.4c9.2,4.2,10,12.5,10,13.1
		c1.9-0.9,8.7-3.9,17.9-2.8c8.9,1.1,14.2,5.3,15.7,6.6c0.9-0.7,8.2-6.1,18.2-4.8c6,0.8,9.9,3.6,11.4,4.8c0.3-1.1,2.4-7.4,10-10.6
		c7.4-3.1,17.1-1.9,24,3.1c0.1-1.1,0.9-5.6,5.6-9c7-4.9,16.1-2.7,16.7-2.6c0.1-1,1.8-10.3,11.6-14.4c9.5-4,22.8-1.3,30.6,7.1
		c0.6-0.4,7.3-5.2,16.4-3.6c7.9,1.5,11.4,6.7,11.9,7.5c0.9-0.6,8.8-5.4,19.2-3.4c11,2.2,15.1,10.2,15.5,11c3.3-0.7,10.6-1.9,19.3,0
		c9.8,2.1,15.7,7,18,9c2.3-7.3,11.9-11.2,19.6-9c6.7,2,10.9,8.4,8.7,14.7c1.3-0.6,5.7-2.4,11.4-1.7c7.5,1,11.3,5.8,11.9,6.5
		c0.7-7.6,8.4-13.6,17.6-13.8c9.7-0.3,18.1,5.8,18.8,13.8c1-1.3,7.3-9,19.6-10.8c16.2-2.4,27.4,7.8,27.9,8.2
		c0.2-1.5,1.1-6.6,6.4-10.4c5.8-4.2,14.5-5.2,22.4-2.6c2-6.4,8.4-11.1,15.8-11.9c9.3-0.9,18.9,4.6,20.9,13.1
		c6.4-5.7,16.1-7.9,24.4-5.5c9.2,2.7,12.5,9.8,13,10.8c1.2-0.6,11.2-5,22.2-1.3c8.6,2.9,12.2,8.8,13.1,10.2c0.5-0.6,6.1-7.8,17-8.2
		c7.7-0.3,15.1,2.9,19.2,8.2c1.2-0.6,7.9-3.7,16.2-1.8c6.4,1.4,9.9,4.9,10.9,6.1c3.6-9.5,15.5-14,23.9-11.4
		c6,1.9,10.2,7.3,10.4,13.5c0.8-1.5,3.9-6.8,11.5-9.6c10.6-4,20.7,0.2,21.8,0.7c0.8-5.7,6.4-10.2,13.4-10.8c7.2-0.6,14,3,16.2,8.5
		c4.4-4.5,11.5-6.6,18.1-5.5c7.9,1.3,11.7,6.6,12.3,7.4c4.8-5.6,13.4-8,21-6.1c6.3,1.6,11,5.9,12.4,11.2c0.9-1.1,3.9-4.3,9.4-5.5
		c8.6-2,15.6,2.6,16.2,3c0.3-5.3,6.1-9.3,12.6-9c6.4,0.4,11.3,4.9,10.8,10.1c0.7-1.7,3.4-7,10.2-10.2
		C1001.7,388.1,1011.7,380.8,1024,380z"/>
	<path fill="#141414" d="M1024,379.9V425H0v-45.2c9.3,0,17.6,3.7,22.6,9.3h0c-0.1-4.6,3.2-8.8,8.1-10.5c6-2.1,13.5-0.3,17.3,4.6
		c1.3-0.4,8.9-2.7,17,0.3c5.9,2.2,8.8,6,9.7,7.4c0.4-0.3,4.4-3.5,10.4-2.8c5.6,0.6,8.4,4.2,8.7,4.7c-1.2-5.2,1.1-10.3,5.7-12.8
		c6.5-3.4,17.4-1.4,22.6,6c1.5-1,4.8-2.8,9.4-3.4c8-1,13.9,2.5,15.1,3.3c6.4-3.2,14.4-3.4,20.8-0.4c9.2,4.2,10,12.5,10,13.1
		c1.9-0.9,8.7-3.9,17.9-2.8c8.9,1.1,14.2,5.3,15.7,6.6c0.9-0.7,8.2-6.1,18.2-4.8c6,0.8,9.9,3.6,11.4,4.8c0.3-1.1,2.4-7.4,10-10.6
		c7.4-3.1,17.1-1.9,24,3.1c0.1-1.1,0.9-5.6,5.6-9c7-4.9,16.1-2.7,16.7-2.6c0.1-1,1.8-10.3,11.6-14.4c9.5-4,22.8-1.3,30.6,7.1
		c0.6-0.4,7.3-5.2,16.4-3.6c7.9,1.5,11.4,6.7,11.9,7.5c0.9-0.6,8.8-5.4,19.2-3.4c11,2.2,15.1,10.2,15.5,11c3.3-0.7,10.6-1.9,19.3,0
		c9.8,2.1,15.7,7,18,9c2.3-7.3,11.9-11.2,19.6-9c6.7,2,10.9,8.4,8.7,14.7c1.3-0.6,5.7-2.4,11.4-1.7c7.5,1,11.3,5.8,11.9,6.5
		c0.7-7.6,8.4-13.6,17.6-13.8c9.7-0.3,18.1,5.8,18.8,13.8c1-1.3,7.3-9,19.6-10.8c16.2-2.4,27.4,7.8,27.9,8.2
		c0.2-1.5,1.1-6.6,6.4-10.4c5.8-4.2,14.5-5.2,22.4-2.6c2-6.4,8.4-11.1,15.8-11.9c9.3-0.9,18.9,4.6,20.9,13.1
		c6.4-5.7,16.1-7.9,24.4-5.5c9.2,2.7,12.5,9.8,13,10.8c1.2-0.6,11.2-5,22.2-1.3c8.6,2.9,12.2,8.8,13.1,10.2c0.5-0.6,6.1-7.8,17-8.2
		c7.7-0.3,15.1,2.9,19.2,8.2c1.2-0.6,7.9-3.7,16.2-1.8c6.4,1.4,9.9,4.9,10.9,6.1c3.6-9.5,15.5-14,23.9-11.4
		c6,1.9,10.2,7.3,10.4,13.5c0.8-1.5,3.9-6.8,11.5-9.6c10.6-4,20.7,0.2,21.8,0.7c0.8-5.7,6.4-10.2,13.4-10.8c7.2-0.6,14,3,16.2,8.5
		c4.4-4.5,11.5-6.6,18.1-5.5c7.9,1.3,11.7,6.6,12.3,7.4c4.8-5.6,13.4-8,21-6.1c6.3,1.6,11,5.9,12.4,11.2c0.9-1.1,3.9-4.3,9.4-5.5
		c8.6-2,15.6,2.6,16.2,3c0.3-5.3,6.1-9.3,12.6-9c6.4,0.4,11.3,4.9,10.8,10.1c0.7-1.7,3.4-7,10.2-10.2
		C999.4,387.4,1010.6,379.9,1024,379.9z"/>
	<g>
		<g>
			<path d="M243.9,451.3c0,0.9-2.4,1.6-7.3,3c-7.6,2.2-11.4,3.3-16.3,3.2c-7.6-0.2-16.2-3.2-16-5.5c0.2-2.6,12.2-4,19.9-4.1
				C233.5,447.8,243.9,449.4,243.9,451.3z"/>
			<path fill="#C9AC68" d="M212.1,451c0.2-0.8,0.4-1.8,0.8-2.8c0.4-1.1,1-2.1,1.5-2.8c3.5-5,10.3-7.6,16.5-6.5
				c6.4,1.1,9.4,5.6,9.8,6.3c0.7,0.6,1.7,1.7,2.3,3.2c0.4,1,0.6,2,0.6,2.7c-3.1,1.1-8.9,2.8-16.5,2.7
				C220.4,453.6,215.2,452.1,212.1,451z"/>
			<path fill="#F9FE9E" d="M243,448.4c-9.3,0.6-16.6-1.9-18-5.7c-0.3-0.8-0.5-2,0.3-3.8v0c1.9-0.3,3.8-0.3,5.6,0
				c6.4,1.1,9.4,5.6,9.8,6.3C241.4,445.8,242.4,446.9,243,448.4z"/>
		</g>
		<g>
			<path d="M134.3,427.7c0,0.9-2.4,1.6-7.3,3c-7.6,2.2-11.4,3.3-16.3,3.2c-7.6-0.2-16.2-3.2-16-5.5c0.2-2.6,12.2-4,19.9-4.1
				C123.8,424.2,134.2,425.9,134.3,427.7z"/>
			<path fill="#C9AC68" d="M102.5,427.5c0.2-0.8,0.4-1.8,0.8-2.8c0.4-1.1,1-2.1,1.5-2.8c3.5-5,10.3-7.6,16.5-6.5
				c6.4,1.1,9.4,5.6,9.8,6.3c0.7,0.6,1.7,1.7,2.3,3.2c0.4,1,0.6,2,0.6,2.7c-3.1,1.1-8.9,2.8-16.5,2.7
				C110.8,430,105.5,428.5,102.5,427.5z"/>
			<path fill="#F9FE9E" d="M133.3,424.8c-9.3,0.6-16.6-1.9-18-5.7c-0.3-0.8-0.5-2,0.3-3.8v0c1.9-0.3,3.8-0.3,5.6,0
				c6.4,1.1,9.4,5.6,9.8,6.3C131.7,422.3,132.7,423.3,133.3,424.8z"/>
		</g>
		<g>
			<path d="M403.1,491.5c0,0.9-2.4,1.6-7.3,3c-7.6,2.2-11.4,3.3-16.3,3.2c-7.6-0.2-16.2-3.2-16-5.5c0.2-2.6,12.2-4,19.9-4.1
				C392.7,487.9,403,489.6,403.1,491.5z"/>
			<path fill="#C9AC68" d="M371.3,491.2c0.2-0.8,0.4-1.8,0.8-2.8c0.4-1.1,1-2.1,1.5-2.8c3.5-5,10.3-7.6,16.5-6.5
				c6.4,1.1,9.4,5.6,9.8,6.3c0.7,0.6,1.7,1.7,2.3,3.2c0.4,1,0.6,2,0.6,2.7c-3.1,1.1-8.9,2.8-16.5,2.7
				C379.6,493.8,374.4,492.3,371.3,491.2z"/>
			<path fill="#F9FE9E" d="M402.2,488.5c-9.3,0.6-16.6-1.9-18-5.7c-0.3-0.8-0.5-2,0.3-3.8v0c1.9-0.3,3.8-0.3,5.6,0
				c6.4,1.1,9.4,5.6,9.8,6.3C400.6,486,401.5,487.1,402.2,488.5z"/>
		</g>
		<g>
			<path d="M539.4,426.2c0,0.9-2.4,1.6-7.3,3c-7.6,2.2-11.4,3.3-16.3,3.2c-7.6-0.2-16.2-3.2-16-5.5c0.2-2.6,12.2-4,19.9-4.1
				C529,422.7,539.3,424.3,539.4,426.2z"/>
			<path fill="#C9AC68" d="M507.6,425.9c0.2-0.8,0.4-1.8,0.8-2.8c0.4-1.1,1-2.1,1.5-2.8c3.5-5,10.3-7.6,16.5-6.5
				c6.4,1.1,9.4,5.6,9.8,6.3c0.7,0.6,1.7,1.7,2.3,3.2c0.4,1,0.6,2,0.6,2.7c-3.1,1.1-8.9,2.8-16.5,2.7
				C515.9,428.5,510.7,427,507.6,425.9z"/>
			<path fill="#F9FE9E" d="M538.5,423.2c-9.3,0.6-16.6-1.9-18-5.7c-0.3-0.8-0.5-2,0.3-3.8v0c1.9-0.3,3.8-0.3,5.6,0
				c6.4,1.1,9.4,5.6,9.8,6.3C536.9,420.7,537.8,421.8,538.5,423.2z"/>
		</g>
		<g>
			<path d="M269.3,500.1c0,0.6-1.7,1.2-5.3,2.2c-5.5,1.6-8.2,2.4-11.7,2.3c-5.5-0.1-11.7-2.3-11.6-3.9c0.2-1.9,8.8-2.9,14.4-3
				C261.7,497.5,269.3,498.7,269.3,500.1z"/>
			<path fill="#C9AC68" d="M246.3,499.9c0.1-0.6,0.3-1.3,0.6-2c0.3-0.8,0.7-1.5,1.1-2c2.5-3.6,7.4-5.5,11.9-4.7
				c4.6,0.8,6.8,4.1,7.1,4.6c0.5,0.5,1.2,1.2,1.7,2.3c0.3,0.8,0.4,1.4,0.5,1.9c-2.3,0.8-6.5,2-11.9,1.9
				C252.3,501.8,248.5,500.7,246.3,499.9z"/>
			<path fill="#F9FE9E" d="M268.6,498c-6.8,0.5-12-1.4-13-4.1c-0.2-0.6-0.4-1.5,0.2-2.7v0c1.3-0.2,2.7-0.2,4.1,0
				c4.6,0.8,6.8,4.1,7.1,4.6C267.5,496.1,268.2,496.9,268.6,498z"/>
		</g>
		<g>
			<path d="M640.5,493.9c0,0.5-1.5,1-4.5,1.8c-4.6,1.3-7,2-10,1.9c-4.7-0.1-9.9-2-9.8-3.3c0.1-1.6,7.5-2.5,12.2-2.5
				C634.1,491.8,640.5,492.8,640.5,493.9z"/>
			<path fill="#C9AC68" d="M621,493.8c0.1-0.5,0.3-1.1,0.5-1.7c0.3-0.7,0.6-1.3,0.9-1.7c2.2-3.1,6.3-4.6,10.1-4
				c3.9,0.7,5.7,3.5,6,3.9c0.4,0.4,1,1,1.4,1.9c0.3,0.6,0.4,1.2,0.4,1.6c-1.9,0.7-5.5,1.7-10.1,1.6
				C626.1,495.4,622.9,494.5,621,493.8z"/>
			<path fill="#F9FE9E" d="M639.9,492.2c-5.7,0.4-10.2-1.2-11-3.5c-0.2-0.5-0.3-1.2,0.2-2.3v0c1.1-0.2,2.3-0.2,3.4,0
				c3.9,0.7,5.7,3.5,6,3.9C638.9,490.6,639.5,491.2,639.9,492.2z"/>
		</g>
		<g>
			<path d="M925.2,426.3c0,0.5-1.5,1-4.5,1.8c-4.6,1.3-7,2-10,1.9c-4.7-0.1-9.9-2-9.8-3.3c0.1-1.6,7.5-2.5,12.2-2.5
				C918.8,424.1,925.2,425.1,925.2,426.3z"/>
			<path fill="#C9AC68" d="M905.8,426.1c0.1-0.5,0.3-1.1,0.5-1.7c0.3-0.7,0.6-1.3,0.9-1.7c2.2-3.1,6.3-4.6,10.1-4
				c3.9,0.7,5.7,3.5,6,3.9c0.4,0.4,1,1,1.4,1.9c0.3,0.6,0.4,1.2,0.4,1.6c-1.9,0.7-5.5,1.7-10.1,1.6
				C910.8,427.7,907.6,426.8,905.8,426.1z"/>
			<path fill="#F9FE9E" d="M924.7,424.5c-5.7,0.4-10.2-1.2-11-3.5c-0.2-0.5-0.3-1.2,0.2-2.3v0c1.1-0.2,2.3-0.2,3.4,0
				c3.9,0.7,5.7,3.5,6,3.9C923.7,422.9,924.3,423.6,924.7,424.5z"/>
		</g>
		<g>
			<path d="M500.4,425c0,0.5-1.5,1-4.5,1.8c-4.6,1.3-7,2-10,1.9c-4.7-0.1-9.9-2-9.8-3.3c0.1-1.6,7.5-2.5,12.2-2.5
				C494,422.8,500.4,423.9,500.4,425z"/>
			<path fill="#C9AC68" d="M480.9,424.8c0.1-0.5,0.3-1.1,0.5-1.7c0.3-0.7,0.6-1.3,0.9-1.7c2.2-3.1,6.3-4.6,10.1-4
				c3.9,0.7,5.7,3.5,6,3.9c0.4,0.4,1,1,1.4,1.9c0.3,0.6,0.4,1.2,0.4,1.6c-1.9,0.7-5.5,1.7-10.1,1.6
				C486,426.4,482.8,425.5,480.9,424.8z"/>
			<path fill="#F9FE9E" d="M499.8,423.2c-5.7,0.4-10.2-1.2-11-3.5c-0.2-0.5-0.3-1.2,0.2-2.3v0c1.1-0.2,2.3-0.2,3.4,0
				c3.9,0.7,5.7,3.5,6,3.9C498.9,421.6,499.5,422.3,499.8,423.2z"/>
		</g>
		<g>
			<path d="M431.6,424.4c-1.2,0.6-2.4,1.3-2.3,2c0.3,1.5,6.3,2.1,9.9,2.1c3,0,7.8-0.4,13.5-2.6C445.7,425.4,438.6,424.9,431.6,424.4
				z"/>
			<path fill="#C9AC68" d="M452.7,425.9v-2.6l-12.9-1.8l-6.5,1.4l-1.6,1.4v1.6c2.8,0.6,6.7,1.2,11.4,1.1
				C446.9,427,450.2,426.5,452.7,425.9z"/>
			<polygon fill="#F9FE9E" points="452.7,423.3 442.2,424.3 433.5,424 433.2,422.9 439.8,421.5 			"/>
		</g>
		<g>
			<path d="M430.8,427c0,0.8-2.2,1.5-6.8,2.8c-7.1,2-10.6,3-15.1,2.9c-7.1-0.2-15.1-3-14.9-5.1c0.2-2.4,11.3-3.7,18.5-3.8
				C421,423.7,430.7,425.2,430.8,427z"/>
			<path fill="#C9AC68" d="M401.2,426.7c0.1-0.8,0.4-1.7,0.8-2.6c0.4-1,0.9-1.9,1.4-2.6c3.3-4.6,9.6-7.1,15.3-6
				c5.9,1,8.7,5.2,9.1,5.9c0.6,0.6,1.5,1.6,2.1,2.9c0.4,1,0.5,1.8,0.6,2.5c-2.9,1-8.3,2.6-15.3,2.5
				C408.9,429.1,404,427.7,401.2,426.7z"/>
			<path fill="#F9FE9E" d="M429.9,424.3c-8.7,0.6-15.4-1.8-16.7-5.3c-0.3-0.7-0.5-1.9,0.3-3.5v0c1.7-0.3,3.5-0.3,5.2,0
				c5.9,1,8.7,5.2,9.1,5.9C428.4,421.9,429.3,422.9,429.9,424.3z"/>
		</g>
		<g>
			<path d="M88,505.3c0,0.4-1,0.7-3,1.2c-3.2,0.9-4.7,1.4-6.8,1.3c-3.2-0.1-6.7-1.3-6.7-2.3c0.1-1.1,5.1-1.7,8.3-1.7
				C83.6,503.9,87.9,504.6,88,505.3z"/>
			<path fill="#C9AC68" d="M74.8,505.2c0.1-0.3,0.2-0.7,0.3-1.2c0.2-0.5,0.4-0.9,0.6-1.2c1.5-2.1,4.3-3.2,6.8-2.7
				c2.6,0.5,3.9,2.3,4.1,2.6c0.3,0.3,0.7,0.7,1,1.3c0.2,0.4,0.2,0.8,0.3,1.1c-1.3,0.5-3.7,1.2-6.8,1.1
				C78.2,506.3,76,505.7,74.8,505.2z"/>
			<path fill="#F9FE9E" d="M87.6,504.1c-3.9,0.3-6.9-0.8-7.5-2.4c-0.1-0.3-0.2-0.8,0.1-1.6v0c0.8-0.1,1.6-0.1,2.3,0
				c2.6,0.5,3.9,2.3,4.1,2.6C86.9,503.1,87.3,503.5,87.6,504.1z"/>
		</g>
		<g>
			<path d="M152.5,427.2c0,0.4-1,0.7-3,1.2c-3.2,0.9-4.7,1.4-6.8,1.3c-3.2-0.1-6.7-1.3-6.7-2.3c0.1-1.1,5.1-1.7,8.3-1.7
				C148.2,425.7,152.5,426.4,152.5,427.2z"/>
			<path fill="#C9AC68" d="M139.3,427.1c0.1-0.3,0.2-0.7,0.3-1.2c0.2-0.5,0.4-0.9,0.6-1.2c1.5-2.1,4.3-3.2,6.8-2.7
				c2.6,0.5,3.9,2.3,4.1,2.6c0.3,0.3,0.7,0.7,1,1.3c0.2,0.4,0.2,0.8,0.3,1.1c-1.3,0.5-3.7,1.2-6.8,1.1
				C142.7,428.2,140.6,427.5,139.3,427.1z"/>
			<path fill="#F9FE9E" d="M152.1,426c-3.9,0.3-6.9-0.8-7.5-2.4c-0.1-0.3-0.2-0.8,0.1-1.6v0c0.8-0.1,1.6-0.1,2.3,0
				c2.6,0.5,3.9,2.3,4.1,2.6C151.4,424.9,151.8,425.4,152.1,426z"/>
		</g>
		<g>
			<path d="M186.6,425.3c0,0.5-1.4,0.9-4.3,1.8c-4.5,1.3-6.7,1.9-9.6,1.9c-4.5-0.1-9.6-1.9-9.5-3.2c0.1-1.5,7.2-2.4,11.8-2.4
				C180.4,423.3,186.5,424.2,186.6,425.3z"/>
			<path fill="#C9AC68" d="M167.8,425.2c0.1-0.5,0.2-1.1,0.5-1.7c0.3-0.7,0.6-1.2,0.9-1.7c2.1-3,6.1-4.5,9.7-3.8
				c3.8,0.7,5.5,3.3,5.8,3.7c0.4,0.4,1,1,1.4,1.9c0.3,0.6,0.3,1.2,0.4,1.6c-1.8,0.7-5.3,1.6-9.7,1.6
				C172.7,426.7,169.6,425.8,167.8,425.2z"/>
			<path fill="#F9FE9E" d="M186,423.6c-5.5,0.4-9.8-1.1-10.6-3.4c-0.2-0.5-0.3-1.2,0.2-2.2v0c1.1-0.2,2.2-0.2,3.3,0
				c3.8,0.7,5.5,3.3,5.8,3.7C185.1,422.1,185.6,422.7,186,423.6z"/>
		</g>
		<g>
			<path d="M688.3,426.5c0,0.9-2.5,1.7-7.5,3.1c-7.9,2.3-11.8,3.4-16.8,3.3c-7.9-0.2-16.8-3.3-16.6-5.7c0.3-2.7,12.6-4.1,20.6-4.2
				C677.5,422.9,688.2,424.6,688.3,426.5z"/>
			<path fill="#C9AC68" d="M655.4,426.3c0.2-0.9,0.4-1.9,0.9-2.9c0.5-1.1,1-2.1,1.5-2.9c3.7-5.2,10.7-7.8,17-6.7
				c6.6,1.2,9.7,5.8,10.1,6.6c0.7,0.6,1.7,1.7,2.4,3.3c0.5,1.1,0.6,2,0.6,2.8c-3.2,1.1-9.3,2.9-17,2.8
				C664,428.9,658.5,427.4,655.4,426.3z"/>
			<path fill="#F9FE9E" d="M687.3,423.5c-9.7,0.7-17.2-2-18.6-5.9c-0.3-0.8-0.5-2.1,0.3-3.9v0c1.9-0.3,3.9-0.3,5.8,0
				c6.6,1.2,9.7,5.8,10.1,6.6C685.7,420.9,686.7,422,687.3,423.5z"/>
		</g>
		<g>
			<path d="M852.2,500c0,0.5-1.4,0.9-4.2,1.7c-4.4,1.3-6.6,1.9-9.4,1.8c-4.4-0.1-9.4-1.9-9.3-3.2c0.1-1.5,7-2.3,11.5-2.4
				C846.1,498,852.1,499,852.2,500z"/>
			<path fill="#C9AC68" d="M833.7,499.9c0.1-0.5,0.2-1,0.5-1.6c0.3-0.6,0.6-1.2,0.8-1.6c2-2.9,6-4.4,9.5-3.8
				c3.7,0.6,5.4,3.3,5.7,3.7c0.4,0.4,1,1,1.3,1.8c0.3,0.6,0.3,1.1,0.4,1.5c-1.8,0.6-5.2,1.6-9.5,1.5
				C838.5,501.4,835.5,500.5,833.7,499.9z"/>
			<path fill="#F9FE9E" d="M851.6,498.4c-5.4,0.4-9.6-1.1-10.4-3.3c-0.2-0.4-0.3-1.2,0.2-2.2v0c1.1-0.2,2.2-0.2,3.3,0
				c3.7,0.6,5.4,3.3,5.7,3.7C850.7,496.9,851.2,497.5,851.6,498.4z"/>
		</g>
		<g>
			<path d="M832.2,498.3c0,1-2.7,1.8-8.3,3.4c-8.6,2.5-12.9,3.7-18.4,3.6c-8.7-0.2-18.4-3.7-18.1-6.2c0.3-2.9,13.8-4.5,22.6-4.6
				C820.3,494.3,832.1,496.2,832.2,498.3z"/>
			<path fill="#C9AC68" d="M796.2,498c0.2-0.9,0.5-2,0.9-3.2c0.5-1.3,1.1-2.3,1.7-3.2c4-5.7,11.7-8.6,18.6-7.4
				c7.2,1.3,10.6,6.4,11.1,7.2c0.8,0.7,1.9,1.9,2.6,3.6c0.5,1.2,0.7,2.2,0.7,3c-3.5,1.3-10.1,3.1-18.6,3
				C805.6,500.9,799.6,499.3,796.2,498z"/>
			<path fill="#F9FE9E" d="M831.1,495c-10.6,0.7-18.8-2.2-20.4-6.5c-0.3-0.9-0.6-2.3,0.3-4.3v0c2.1-0.3,4.3-0.4,6.4,0
				c7.2,1.3,10.6,6.4,11.1,7.2C829.3,492.1,830.4,493.3,831.1,495z"/>
		</g>
		<g>
			<path d="M896.2,426.5c0,0.4-1.1,0.7-3.3,1.3c-3.4,1-5.1,1.5-7.3,1.4c-3.4-0.1-7.2-1.4-7.1-2.4c0.1-1.1,5.4-1.8,8.9-1.8
				C891.5,424.9,896.1,425.6,896.2,426.5z"/>
			<path fill="#C9AC68" d="M882,426.4c0.1-0.4,0.2-0.8,0.4-1.3c0.2-0.5,0.4-0.9,0.7-1.3c1.6-2.2,4.6-3.4,7.3-2.9
				c2.8,0.5,4.2,2.5,4.4,2.8c0.3,0.3,0.7,0.7,1,1.4c0.2,0.5,0.3,0.9,0.3,1.2c-1.4,0.5-4,1.2-7.3,1.2
				C885.7,427.5,883.3,426.8,882,426.4z"/>
			<path fill="#F9FE9E" d="M895.7,425.2c-4.2,0.3-7.4-0.9-8-2.6c-0.1-0.3-0.2-0.9,0.1-1.7v0c0.8-0.1,1.7-0.1,2.5,0
				c2.8,0.5,4.2,2.5,4.4,2.8C895,424,895.5,424.5,895.7,425.2z"/>
		</g>
		<g>
			<path d="M881.5,426.4c0,1-2.7,1.8-8.3,3.4c-8.6,2.5-12.9,3.7-18.4,3.6c-8.7-0.2-18.4-3.7-18.1-6.2c0.3-2.9,13.8-4.5,22.6-4.6
				C869.6,422.5,881.4,424.3,881.5,426.4z"/>
			<path fill="#C9AC68" d="M845.5,426.2c0.2-0.9,0.5-2,0.9-3.2c0.5-1.3,1.1-2.3,1.7-3.2c4-5.7,11.7-8.6,18.6-7.4
				c7.2,1.3,10.6,6.4,11.1,7.2c0.8,0.7,1.9,1.9,2.6,3.6c0.5,1.2,0.7,2.2,0.7,3c-3.5,1.3-10.1,3.1-18.6,3
				C854.8,429.1,848.9,427.4,845.5,426.2z"/>
			<path fill="#F9FE9E" d="M880.4,423.1c-10.6,0.7-18.8-2.2-20.4-6.5c-0.3-0.9-0.6-2.3,0.3-4.3v0c2.1-0.3,4.3-0.4,6.4,0
				c7.2,1.3,10.6,6.4,11.1,7.2C878.6,420.3,879.7,421.4,880.4,423.1z"/>
		</g>
		<g>
			<path d="M360,424.8c0.9,3.2-10.5,9.6-22.1,9.4c-8-0.1-16.1-3.4-15.9-5.6c0.1-1,3.3-2,9.6-3.9c6-1.8,9.1-2.7,11.6-3
				C349.8,421.1,359.3,422.2,360,424.8z"/>
			<path fill="#C9AC68" d="M332.9,424.4c3.1,0.8,7.5,1.6,12.9,1.6c5.7,0,10.4-0.8,13.6-1.6c0.5-2.3,0.9-4.7,1.4-7
				c0.1-1,0.3-4.1-2.2-6.6c-3.2-3.3-9.7-4.5-15.8-2.5c-1.5,0.6-5.9,2.7-8.4,7.1C332.1,419.4,332.6,423,332.9,424.4z"/>
			<path fill="#F9FE9E" d="M360.8,417.4c0,0.2-0.1,0.4-0.1,0.6c-3.3-0.3-6.8-1.4-10.2-3.2c-3.4-1.8-6.1-4.2-7.7-6.5c0,0,0,0,0,0
				c6.1-2,12.5-0.8,15.8,2.5C361.1,413.3,360.9,416.3,360.8,417.4z"/>
		</g>
		<g>
			<path d="M261.5,503.6c-0.7,0.3-1.5,0.8-1.4,1.2c0.2,0.9,3.8,1.3,6.1,1.3c1.8,0,4.7-0.2,8.2-1.6
				C270.1,504.2,265.8,503.9,261.5,503.6z"/>
			<path fill="#C9AC68" d="M274.4,504.6V503l-7.9-1.1l-4,0.9l-1,0.9v1c1.7,0.4,4.1,0.7,7,0.7C270.8,505.2,272.8,504.9,274.4,504.6z"
				/>
			<polygon fill="#F9FE9E" points="274.4,503 267.9,503.5 262.6,503.3 262.5,502.7 266.5,501.8 			"/>
		</g>
		<g>
			<path d="M249.7,504.8c-0.7,0.3-1.5,0.8-1.4,1.2c0.2,0.9,3.8,1.3,6.1,1.3c1.8,0,4.7-0.2,8.2-1.6
				C258.3,505.5,254,505.1,249.7,504.8z"/>
			<path fill="#C9AC68" d="M262.6,505.8v-1.6l-7.9-1.1l-4,0.9l-1,0.9v1c1.7,0.4,4.1,0.7,7,0.7C259,506.4,261,506.1,262.6,505.8z"/>
			<polygon fill="#F9FE9E" points="262.6,504.2 256.1,504.8 250.8,504.6 250.7,503.9 254.7,503.1 			"/>
		</g>
		<g>
			<path d="M904.2,506.4c-1.5,0.7-3.1,1.7-2.9,2.6c0.3,1.9,8.1,2.7,12.7,2.7c3.8,0,10-0.5,17.3-3.3
				C922.2,507.8,913.2,507.1,904.2,506.4z"/>
			<path fill="#C9AC68" d="M931.3,508.4v-3.4l-16.6-2.3l-8.4,1.8l-2.1,1.8v2c3.6,0.8,8.6,1.5,14.6,1.4
				C923.8,509.7,928,509.1,931.3,508.4z"/>
			<polygon fill="#F9FE9E" points="931.3,505.1 917.7,506.3 906.6,505.9 906.3,504.6 914.7,502.7 			"/>
		</g>
		<g>
			<path d="M462.6,424.5c-0.9,0.4-1.9,1-1.8,1.6c0.2,1.2,4.9,1.6,7.7,1.7c2.3,0,6-0.3,10.5-2C473.6,425.3,468.1,424.9,462.6,424.5z"
				/>
			<path fill="#C9AC68" d="M479.1,425.7v-2l-10.1-1.4l-5.1,1.1l-1.3,1.1v1.2c2.2,0.5,5.2,0.9,8.9,0.8
				C474.5,426.5,477.1,426.1,479.1,425.7z"/>
			<polygon fill="#F9FE9E" points="479.1,423.7 470.9,424.4 464.1,424.2 463.9,423.4 469,422.3 			"/>
		</g>
		<g>
			<path d="M453.3,424.6c-0.5,0.2-1,0.5-0.9,0.8c0.1,0.6,2.6,0.9,4.1,0.9c1.2,0,3.2-0.1,5.6-1.1C459.1,425,456.2,424.8,453.3,424.6z
				"/>
			<path fill="#C9AC68" d="M462.1,425.2v-1.1l-5.4-0.8L454,424l-0.7,0.6v0.7c1.2,0.2,2.8,0.5,4.7,0.4
				C459.6,425.6,461,425.4,462.1,425.2z"/>
			<polygon fill="#F9FE9E" points="462.1,424.1 457.7,424.5 454.1,424.4 454,424 456.7,423.4 			"/>
		</g>
		<g>
			<path d="M55.9,423.4c-1.6,0.8-3.3,1.8-3.2,2.8c0.4,2.1,8.7,2.9,13.7,2.9c4.1,0,10.7-0.5,18.5-3.6
				C75.2,424.9,65.6,424.1,55.9,423.4z"/>
			<path fill="#C9AC68" d="M84.9,425.6V422l-17.8-2.5l-9,2l-2.2,2v2.2c3.9,0.8,9.3,1.6,15.7,1.5C76.9,427,81.4,426.3,84.9,425.6z"/>
			<polygon fill="#F9FE9E" points="84.9,422 70.4,423.3 58.5,422.9 58.1,421.4 67.1,419.5 			"/>
		</g>
		<g>
			<path d="M200.3,424.1c-1.6,1.4-3.3,3.3-3.2,5.1c0.4,3.8,8.7,5.3,13.7,5.3c4.1,0,10.7-0.9,18.5-6.5
				C219.7,426.7,210,425.4,200.3,424.1z"/>
			<path fill="#C9AC68" d="M229.3,428v-6.5l-17.8-4.6l-9,3.6l-2.2,3.6v3.9c3.9,1.5,9.3,2.9,15.7,2.7
				C221.3,430.5,225.9,429.3,229.3,428z"/>
			<polygon fill="#F9FE9E" points="229.3,421.4 214.8,423.8 202.9,423 202.6,420.5 211.6,416.9 			"/>
		</g>
		<g>
			<path d="M261.7,424.9c-0.5,0.3-1,0.7-0.9,1c0.2,0.6,2.8,0.7,4.4,0.5c1.3-0.1,3.3-0.4,5.6-1.6
				C267.8,424.9,264.8,424.9,261.7,424.9z"/>
			<path fill="#C9AC68" d="M270.9,424.8l-0.2-1.1l-5.6-0.3l-2.7,0.9l-0.6,0.7l0.1,0.7c1.2,0.1,3,0.2,4.9,0
				C268.4,425.5,269.8,425.1,270.9,424.8z"/>
			<polygon fill="#F9FE9E" points="270.7,423.7 266.3,424.5 262.5,424.7 262.4,424.3 265.1,423.4 			"/>
		</g>
		<g>
			<path d="M811.8,424.9c0.8,4.1-16.7,10.6-32.8,12.4c-15.9,1.8-35.3-0.5-36-4.7c-0.7-4.4,19.4-11.2,38-12.4
				C793.6,419.5,811,421,811.8,424.9z"/>
			<path fill="#C9AC68" d="M756.3,424.9c5.3,1.9,14.1,4.4,25.3,4.7c13.8,0.4,24.5-2.7,30.1-4.7c-0.9-3.6-1.8-7.1-2.7-10.7
				c-5.1-9.4-17.1-14.8-28.8-13.4c-9.7,1.1-17.9,6.8-21.3,14.5C758.1,418.5,757.2,421.7,756.3,424.9z"/>
			<path fill="#F9FE9E" d="M809.1,414.4c-5.2,1.4-12.5,0.8-19.4-2.1c-6.5-2.7-11.1-6.8-12.8-10.9c1.1-0.3,2.2-0.5,3.3-0.6
				c11.7-1.4,23.7,4.1,28.8,13.4C809.1,414.3,809.1,414.4,809.1,414.4z"/>
		</g>
		<g>
			<path d="M1021.3,424.2c0.8,4.1-16.7,10.6-32.8,12.4c-15.9,1.8-35.3-0.5-36-4.7c-0.7-4.4,19.4-11.2,38-12.4
				C1003.2,418.7,1020.5,420.2,1021.3,424.2z"/>
			<path fill="#C9AC68" d="M965.8,424.2c5.3,1.9,14.1,4.4,25.3,4.7c13.8,0.4,24.5-2.7,30.1-4.7c-0.9-3.6-1.8-7.1-2.7-10.7
				c-5.1-9.4-17.1-14.8-28.8-13.4c-9.7,1.1-17.9,6.8-21.3,14.5C967.6,417.8,966.7,421,965.8,424.2z"/>
			<path fill="#F9FE9E" d="M1018.6,413.6c-5.2,1.4-12.5,0.8-19.4-2.1c-6.5-2.7-11.1-6.8-12.8-10.9c1.1-0.3,2.2-0.5,3.3-0.6
				c11.7-1.4,23.7,4.1,28.8,13.4C1018.6,413.6,1018.6,413.6,1018.6,413.6z"/>
		</g>
		<g>
			<path d="M631,424.7c0.6,3.4-13.7,8.7-26.8,10.1c-13,1.4-28.9-0.4-29.5-3.8c-0.6-3.6,15.9-9.2,31.1-10.1
				C616.2,420.2,630.4,421.5,631,424.7z"/>
			<path fill="#C9AC68" d="M585.6,424.7c4.3,1.5,11.5,3.6,20.7,3.8c11.3,0.3,20-2.2,24.7-3.8c-0.7-2.9-1.5-5.8-2.2-8.7
				c-4.1-7.7-14-12.1-23.6-11c-7.9,0.9-14.7,5.5-17.5,11.9C587.1,419.5,586.3,422.1,585.6,424.7z"/>
			<path fill="#F9FE9E" d="M628.9,416.1c-4.3,1.2-10.2,0.6-15.9-1.7c-5.3-2.2-9.1-5.6-10.5-8.9c0.9-0.2,1.8-0.4,2.7-0.5
				c9.6-1.1,19.4,3.3,23.6,11C628.8,416,628.8,416,628.9,416.1z"/>
		</g>
	</g>
	<path opacity="0.5" fill="#0F0F0F" d="M996.7,397.5c-6.9,3.2-9.5,8.6-10.2,10.2c0.5-5.2-4.5-9.7-10.8-10.1
		c-6.5-0.4-12.3,3.7-12.6,9c-0.6-0.4-7.6-5-16.2-3c-5.5,1.3-8.5,4.5-9.4,5.5c-1.4-5.3-6.2-9.7-12.4-11.2c-7.6-1.9-16.2,0.5-21,6.1
		c-0.6-0.8-4.3-6.1-12.3-7.4c-6.7-1.1-13.7,1.1-18.1,5.5c-2.2-5.6-9-9.2-16.2-8.5c-7,0.6-12.7,5.1-13.4,10.8
		c-1.1-0.5-11.2-4.7-21.8-0.7c-7.5,2.9-10.7,8.2-11.5,9.6c-0.2-6.2-4.4-11.6-10.4-13.5c-8.4-2.6-20.3,1.8-23.9,11.4
		c-1.1-1.2-4.6-4.7-10.9-6.1c-8.3-1.9-15,1.3-16.2,1.8c-4.1-5.4-11.5-8.6-19.2-8.2c-10.9,0.5-16.5,7.6-17,8.2
		c-0.8-1.4-4.4-7.4-13.1-10.2c-11.1-3.7-21,0.7-22.2,1.3c-0.5-1-3.8-8.1-13-10.8c-8.3-2.4-18-0.3-24.4,5.5
		c-2-8.5-11.6-14.1-20.9-13.1c-7.4,0.7-13.8,5.5-15.8,11.9c-7.9-2.5-16.6-1.5-22.4,2.6c-5.3,3.8-6.2,8.8-6.4,10.4
		c-0.5-0.5-11.7-10.6-27.9-8.2c-12.3,1.8-18.5,9.5-19.6,10.8c-0.7-8-9.2-14.1-18.8-13.8c-9.2,0.2-17,6.2-17.6,13.8
		c-0.6-0.7-4.3-5.5-11.9-6.5c-5.7-0.8-10.1,1.1-11.4,1.7c2.2-6.3-2-12.7-8.7-14.7c-7.7-2.3-17.3,1.6-19.6,9c-2.2-2-8.1-6.8-18-9
		c-8.8-1.9-16.1-0.7-19.3,0c-0.4-0.7-4.5-8.8-15.5-11c-10.4-2-18.3,2.8-19.2,3.4c-0.5-0.8-4-6-11.9-7.5c-9.1-1.7-15.8,3.1-16.4,3.6
		c-7.8-8.4-21.1-11.1-30.6-7.1c-9.8,4.1-11.4,13.4-11.6,14.4c-0.6-0.1-9.7-2.3-16.7,2.6c-4.8,3.3-5.5,7.8-5.6,9
		c-6.9-5.1-16.6-6.3-24-3.1c-7.5,3.2-9.6,9.5-10,10.6c-1.5-1.2-5.3-4-11.4-4.8c-10-1.3-17.3,4.1-18.2,4.8c-1.5-1.3-6.9-5.6-15.7-6.6
		c-9.2-1.1-16,1.9-17.9,2.8c0-0.6-0.8-8.9-10-13.1c-6.4-2.9-14.4-2.8-20.8,0.4c-1.2-0.7-7.2-4.2-15.1-3.3c-4.7,0.6-7.9,2.4-9.4,3.4
		c-5.2-7.4-16.1-9.4-22.6-6c-4.6,2.4-6.9,7.6-5.7,12.8c-0.3-0.5-3.1-4-8.7-4.7c-5.9-0.7-10,2.5-10.4,2.8c-0.9-1.4-3.8-5.2-9.7-7.4
		c-8.1-3-15.6-0.7-17-0.3c-3.9-4.8-11.4-6.6-17.3-4.6c-4.9,1.7-8.2,5.9-8.1,10.5h0c-5.1-5.6-13.3-9.3-22.6-9.3v44.1v1.1v14.4
		c9.3,0,17.6-1.3,22.6-3.2h0c-0.1,1.6,3.2,3,8.1,3.6c6,0.7,13.5,0.1,17.3-1.6c1.3,0.1,8.9,0.9,17-0.1c5.9-0.8,8.8-2.1,9.7-2.5
		c0.4,0.1,4.4,1.2,10.4,1c5.6-0.2,8.4-1.4,8.7-1.6c-1.2,1.8,1.1,3.5,5.7,4.4c6.5,1.2,17.4,0.5,22.6-2c1.5,0.3,4.8,1,9.4,1.2
		c8,0.3,13.9-0.9,15.1-1.1c6.4,1.1,14.4,1.2,20.8,0.1c9.2-1.4,10-4.3,10-4.5c1.9,0.3,8.7,1.4,17.9,1c8.9-0.4,14.2-1.8,15.7-2.3
		c0.9,0.2,8.2,2.1,18.2,1.6c6-0.3,9.9-1.2,11.4-1.6c0.3,0.4,2.4,2.6,10,3.6c7.4,1.1,17.1,0.7,24-1.1c0.1,0.4,0.9,1.9,5.6,3.1
		c7,1.7,16.1,0.9,16.7,0.9c0.1,0.3,1.8,3.5,11.6,4.9c9.5,1.4,22.8,0.5,30.6-2.4c0.6,0.1,7.3,1.8,16.4,1.2c7.9-0.5,11.4-2.3,11.9-2.6
		c0.9,0.2,8.8,1.9,19.2,1.2c11-0.7,15.1-3.5,15.5-3.8c3.3,0.2,10.6,0.7,19.3,0c9.8-0.7,15.7-2.4,18-3.1c2.3,2.5,11.9,3.9,19.6,3.1
		c6.7-0.7,10.9-2.9,8.7-5.1c1.3,0.2,5.7,0.8,11.4,0.6c7.5-0.4,11.3-2,11.9-2.2c0.7,2.6,8.4,4.7,17.6,4.7c9.7,0.1,18.1-2,18.8-4.7
		c1,0.5,7.3,3.1,19.6,3.7c16.2,0.8,27.4-2.7,27.9-2.8c0.2,0.5,1.1,2.3,6.4,3.6c5.8,1.4,14.5,1.8,22.4,0.9c2,2.2,8.4,3.8,15.8,4.1
		c9.3,0.3,18.9-1.6,20.9-4.5c6.4,2,16.1,2.7,24.4,1.9c9.2-0.9,12.5-3.4,13-3.7c1.2,0.2,11.2,1.7,22.2,0.4c8.6-1,12.2-3,13.1-3.5
		c0.5,0.2,6.1,2.7,17,2.8c7.7,0.1,15.1-1,19.2-2.8c1.2,0.2,7.9,1.3,16.2,0.6c6.4-0.5,9.9-1.7,10.9-2.1c3.6,3.3,15.5,4.8,23.9,3.9
		c6-0.6,10.2-2.5,10.4-4.6c0.8,0.5,3.9,2.3,11.5,3.3c10.6,1.4,20.7-0.1,21.8-0.2c0.8,1.9,6.4,3.5,13.4,3.7c7.2,0.2,14-1,16.2-2.9
		c4.4,1.5,11.5,2.3,18.1,1.9c7.9-0.4,11.7-2.3,12.3-2.5c4.8,1.9,13.4,2.8,21,2.1c6.3-0.5,11-2,12.4-3.9c0.9,0.4,3.9,1.5,9.4,1.9
		c8.6,0.7,15.6-0.9,16.2-1c0.3,1.8,6.1,3.2,12.6,3.1c6.4-0.1,11.3-1.7,10.8-3.5c0.7,0.6,3.4,2.4,10.2,3.5c2.7,3.5,13.9,6.1,27.3,6.1
		V425v-1.1v-44.1C1010.6,379.9,999.4,387.4,996.7,397.5z"/>
</g>
</svg>
