<?xml version="1.0" encoding="utf-8"?>
<!-- Generator: Adobe Illustrator 23.0.5, SVG Export Plug-In . SVG Version: 6.00 Build 0)  -->
<svg version="1.1" xmlns="http://www.w3.org/2000/svg" xmlns:xlink="http://www.w3.org/1999/xlink" x="0px" y="0px"
	 viewBox="0 0 2000 2000" style="enable-background:new 0 0 2000 2000;" xml:space="preserve">
<style type="text/css">
	.st0{fill-rule:evenodd;clip-rule:evenodd;}
	.st1{fill-rule:evenodd;clip-rule:evenodd;fill:#A6F500;}
</style>
<g id="Background">
	<rect x="0" y="0" class="st0" width="2000" height="2000"/>
</g>
<g id="Pattern">
	<g>
		<polygon class="st1" points="29.7,20.8 8.8,0 0,0 0,8.7 21,29.6 		"/>
		<polygon class="st1" points="154.8,0 142.4,0 142.4,8.7 133.7,0 116.2,0 133.7,17.4 95.2,17.4 95.2,29.8 154.8,29.8 		"/>
		<polygon class="st1" points="258.8,0 241.3,0 232.6,8.7 232.6,0 220.2,0 220.2,29.8 279.8,29.8 279.8,17.4 241.3,17.4 		"/>
		<rect x="392.4" y="0" class="st1" width="12.4" height="29.8"/>
		<polygon class="st1" points="383.7,0 366.2,0 345.3,20.8 354,29.6 		"/>
		<rect x="470.2" y="0" class="st1" width="12.4" height="29.8"/>
		<polygon class="st1" points="529.7,20.8 508.8,0 491.3,0 521,29.6 		"/>
		<polygon class="st1" points="642.4,8.7 633.7,0 616.2,0 633.7,17.4 595.2,17.4 595.2,29.8 654.8,29.8 654.8,0 642.4,0 		"/>
		<polygon class="st1" points="758.8,0 741.3,0 732.6,8.7 732.6,0 720.2,0 720.2,29.8 779.8,29.8 779.8,17.4 741.3,17.4 		"/>
		<polygon class="st1" points="883.7,0 866.2,0 845.3,20.8 854,29.6 		"/>
		<rect x="892.4" y="0" class="st1" width="12.4" height="29.8"/>
		<rect x="970.2" y="0" class="st1" width="12.4" height="29.8"/>
		<polygon class="st1" points="1029.7,20.8 1008.8,0 991.3,0 1021,29.6 		"/>
		<polygon class="st1" points="1142.4,8.7 1133.7,0 1116.2,0 1133.7,17.4 1095.2,17.4 1095.2,29.8 1154.8,29.8 1154.8,0 1142.4,0 		
			"/>
		<polygon class="st1" points="1258.8,0 1241.3,0 1232.6,8.7 1232.6,0 1220.2,0 1220.2,29.8 1279.8,29.8 1279.8,17.4 1241.3,17.4 		
			"/>
		<polygon class="st1" points="1383.7,0 1366.2,0 1345.3,20.8 1354,29.6 		"/>
		<rect x="1392.4" y="0" class="st1" width="12.4" height="29.8"/>
		<polygon class="st1" points="1529.7,20.8 1508.8,0 1491.3,0 1521,29.6 		"/>
		<rect x="1470.2" y="0" class="st1" width="12.4" height="29.8"/>
		<polygon class="st1" points="1642.4,8.7 1633.7,0 1616.2,0 1633.7,17.4 1595.2,17.4 1595.2,29.8 1654.8,29.8 1654.8,0 1642.4,0 		
			"/>
		<polygon class="st1" points="1758.8,0 1741.3,0 1732.6,8.7 1732.6,0 1720.2,0 1720.2,29.8 1779.8,29.8 1779.8,17.4 1741.3,17.4 		
			"/>
		<rect x="1892.4" y="0" class="st1" width="12.4" height="29.8"/>
		<polygon class="st1" points="1883.7,0 1866.2,0 1845.3,20.8 1854,29.6 		"/>
		<polygon class="st1" points="1991.3,0 2000,8.7 2000,0 		"/>
		<rect x="1970.2" y="0" class="st1" width="12.4" height="29.8"/>
		<rect y="470.2" class="st1" width="29.8" height="12.4"/>
		<polygon class="st1" points="29.7,520.8 0,491.2 0,508.7 21,529.6 		"/>
		<polygon class="st1" points="154.8,470.2 142.4,470.2 142.4,508.7 104,470.4 95.3,479.2 133.7,517.4 95.2,517.4 95.2,529.8 
			154.8,529.8 		"/>
		<polygon class="st1" points="279.7,479.2 271,470.4 232.6,508.7 232.6,470.2 220.2,470.2 220.2,529.8 279.8,529.8 279.8,517.4 
			241.3,517.4 		"/>
		<polygon class="st1" points="345.3,520.8 354,529.6 392.4,491.3 392.4,529.8 404.8,529.8 404.8,470.2 345.2,470.2 345.2,482.6 
			383.7,482.6 		"/>
		<polygon class="st1" points="470.2,529.8 482.6,529.8 482.6,491.3 521,529.6 529.7,520.8 491.3,482.6 529.8,482.6 529.8,470.2 
			470.2,470.2 		"/>
		<polygon class="st1" points="642.4,508.7 604,470.4 595.3,479.2 633.7,517.4 595.2,517.4 595.2,529.8 654.8,529.8 654.8,470.2 
			642.4,470.2 		"/>
		<polygon class="st1" points="779.7,479.2 771,470.4 732.6,508.7 732.6,470.2 720.2,470.2 720.2,529.8 779.8,529.8 779.8,517.4 
			741.3,517.4 		"/>
		<polygon class="st1" points="845.2,482.6 883.7,482.6 845.3,520.8 854,529.6 892.4,491.3 892.4,529.8 904.8,529.8 904.8,470.2 
			845.2,470.2 		"/>
		<polygon class="st1" points="970.2,529.8 982.6,529.8 982.6,491.3 1021,529.6 1029.7,520.8 991.3,482.6 1029.8,482.6 
			1029.8,470.2 970.2,470.2 		"/>
		<polygon class="st1" points="1142.4,508.7 1104,470.4 1095.3,479.2 1133.7,517.4 1095.2,517.4 1095.2,529.8 1154.8,529.8 
			1154.8,470.2 1142.4,470.2 		"/>
		<polygon class="st1" points="1279.7,479.2 1271,470.4 1232.6,508.7 1232.6,470.2 1220.2,470.2 1220.2,529.8 1279.8,529.8 
			1279.8,517.4 1241.3,517.4 		"/>
		<polygon class="st1" points="1345.2,482.6 1383.7,482.6 1345.3,520.8 1354,529.6 1392.4,491.3 1392.4,529.8 1404.8,529.8 
			1404.8,470.2 1345.2,470.2 		"/>
		<polygon class="st1" points="1470.2,529.8 1482.6,529.8 1482.6,491.3 1521,529.6 1529.7,520.8 1491.3,482.6 1529.8,482.6 
			1529.8,470.2 1470.2,470.2 		"/>
		<polygon class="st1" points="1642.4,508.7 1604,470.4 1595.3,479.2 1633.7,517.4 1595.2,517.4 1595.2,529.8 1654.8,529.8 
			1654.8,470.2 1642.4,470.2 		"/>
		<polygon class="st1" points="1779.7,479.2 1771,470.4 1732.6,508.7 1732.6,470.2 1720.2,470.2 1720.2,529.8 1779.8,529.8 
			1779.8,517.4 1741.3,517.4 		"/>
		<polygon class="st1" points="1845.3,520.8 1854,529.6 1892.4,491.3 1892.4,529.8 1904.8,529.8 1904.8,470.2 1845.2,470.2 
			1845.2,482.6 1883.7,482.6 		"/>
		<polygon class="st1" points="1970.2,529.8 1982.6,529.8 1982.6,491.3 2000,508.7 2000,491.2 1991.3,482.6 2000,482.6 2000,470.2 
			1970.2,470.2 		"/>
		<polygon class="st1" points="29.7,1020.8 0,991.2 0,1008.7 21,1029.6 		"/>
		<rect y="970.2" class="st1" width="29.8" height="12.4"/>
		<polygon class="st1" points="154.8,970.2 142.4,970.2 142.4,1008.7 104,970.4 95.3,979.2 133.7,1017.4 95.2,1017.4 95.2,1029.8 
			154.8,1029.8 		"/>
		<polygon class="st1" points="279.7,979.2 271,970.4 232.6,1008.7 232.6,970.2 220.2,970.2 220.2,1029.8 279.8,1029.8 
			279.8,1017.4 241.3,1017.4 		"/>
		<polygon class="st1" points="345.3,1020.8 354,1029.6 392.4,991.3 392.4,1029.8 404.8,1029.8 404.8,970.2 345.2,970.2 
			345.2,982.6 383.7,982.6 		"/>
		<polygon class="st1" points="470.2,1029.8 482.6,1029.8 482.6,991.3 521,1029.6 529.7,1020.8 491.3,982.6 529.8,982.6 
			529.8,970.2 470.2,970.2 		"/>
		<polygon class="st1" points="642.4,1008.7 604,970.4 595.3,979.2 633.7,1017.4 595.2,1017.4 595.2,1029.8 654.8,1029.8 
			654.8,970.2 642.4,970.2 		"/>
		<polygon class="st1" points="779.7,979.2 771,970.4 732.6,1008.7 732.6,970.2 720.2,970.2 720.2,1029.8 779.8,1029.8 
			779.8,1017.4 741.3,1017.4 		"/>
		<polygon class="st1" points="845.2,982.6 883.7,982.6 845.3,1020.8 854,1029.6 892.4,991.3 892.4,1029.8 904.8,1029.8 
			904.8,970.2 845.2,970.2 		"/>
		<polygon class="st1" points="970.2,1029.8 982.6,1029.8 982.6,991.3 1021,1029.6 1029.7,1020.8 991.3,982.6 1029.8,982.6 
			1029.8,970.2 970.2,970.2 		"/>
		<polygon class="st1" points="1142.4,1008.7 1104,970.4 1095.3,979.2 1133.7,1017.4 1095.2,1017.4 1095.2,1029.8 1154.8,1029.8 
			1154.8,970.2 1142.4,970.2 		"/>
		<polygon class="st1" points="1279.7,979.2 1271,970.4 1232.6,1008.7 1232.6,970.2 1220.2,970.2 1220.2,1029.8 1279.8,1029.8 
			1279.8,1017.4 1241.3,1017.4 		"/>
		<polygon class="st1" points="1345.2,982.6 1383.7,982.6 1345.3,1020.8 1354,1029.6 1392.4,991.3 1392.4,1029.8 1404.8,1029.8 
			1404.8,970.2 1345.2,970.2 		"/>
		<polygon class="st1" points="1470.2,1029.8 1482.6,1029.8 1482.6,991.3 1521,1029.6 1529.7,1020.8 1491.3,982.6 1529.8,982.6 
			1529.8,970.2 1470.2,970.2 		"/>
		<polygon class="st1" points="1642.4,1008.7 1604,970.4 1595.3,979.2 1633.7,1017.4 1595.2,1017.4 1595.2,1029.8 1654.8,1029.8 
			1654.8,970.2 1642.4,970.2 		"/>
		<polygon class="st1" points="1779.7,979.2 1771,970.4 1732.6,1008.7 1732.6,970.2 1720.2,970.2 1720.2,1029.8 1779.8,1029.8 
			1779.8,1017.4 1741.3,1017.4 		"/>
		<polygon class="st1" points="1845.3,1020.8 1854,1029.6 1892.4,991.3 1892.4,1029.8 1904.8,1029.8 1904.8,970.2 1845.2,970.2 
			1845.2,982.6 1883.7,982.6 		"/>
		<polygon class="st1" points="1970.2,1029.8 1982.6,1029.8 1982.6,991.3 2000,1008.7 2000,991.2 1991.3,982.6 2000,982.6 
			2000,970.2 1970.2,970.2 		"/>
		<rect y="1470.2" class="st1" width="29.8" height="12.4"/>
		<polygon class="st1" points="29.7,1520.8 0,1491.2 0,1508.7 21,1529.6 		"/>
		<polygon class="st1" points="154.8,1470.2 142.4,1470.2 142.4,1508.7 104,1470.4 95.3,1479.2 133.7,1517.4 95.2,1517.4 
			95.2,1529.8 154.8,1529.8 		"/>
		<polygon class="st1" points="279.7,1479.2 271,1470.4 232.6,1508.7 232.6,1470.2 220.2,1470.2 220.2,1529.8 279.8,1529.8 
			279.8,1517.4 241.3,1517.4 		"/>
		<polygon class="st1" points="345.3,1520.8 354,1529.6 392.4,1491.3 392.4,1529.8 404.8,1529.8 404.8,1470.2 345.2,1470.2 
			345.2,1482.6 383.7,1482.6 		"/>
		<polygon class="st1" points="470.2,1529.8 482.6,1529.8 482.6,1491.3 521,1529.6 529.7,1520.8 491.3,1482.6 529.8,1482.6 
			529.8,1470.2 470.2,1470.2 		"/>
		<polygon class="st1" points="642.4,1508.7 604,1470.4 595.3,1479.2 633.7,1517.4 595.2,1517.4 595.2,1529.8 654.8,1529.8 
			654.8,1470.2 642.4,1470.2 		"/>
		<polygon class="st1" points="779.7,1479.2 771,1470.4 732.6,1508.7 732.6,1470.2 720.2,1470.2 720.2,1529.8 779.8,1529.8 
			779.8,1517.4 741.3,1517.4 		"/>
		<polygon class="st1" points="845.2,1482.6 883.7,1482.6 845.3,1520.8 854,1529.6 892.4,1491.3 892.4,1529.8 904.8,1529.8 
			904.8,1470.2 845.2,1470.2 		"/>
		<polygon class="st1" points="970.2,1529.8 982.6,1529.8 982.6,1491.3 1021,1529.6 1029.7,1520.8 991.3,1482.6 1029.8,1482.6 
			1029.8,1470.2 970.2,1470.2 		"/>
		<polygon class="st1" points="1142.4,1508.7 1104,1470.4 1095.3,1479.2 1133.7,1517.4 1095.2,1517.4 1095.2,1529.8 1154.8,1529.8 
			1154.8,1470.2 1142.4,1470.2 		"/>
		<polygon class="st1" points="1279.7,1479.2 1271,1470.4 1232.6,1508.7 1232.6,1470.2 1220.2,1470.2 1220.2,1529.8 1279.8,1529.8 
			1279.8,1517.4 1241.3,1517.4 		"/>
		<polygon class="st1" points="1345.2,1482.6 1383.7,1482.6 1345.3,1520.8 1354,1529.6 1392.4,1491.3 1392.4,1529.8 1404.8,1529.8 
			1404.8,1470.2 1345.2,1470.2 		"/>
		<polygon class="st1" points="1470.2,1529.8 1482.6,1529.8 1482.6,1491.3 1521,1529.6 1529.7,1520.8 1491.3,1482.6 1529.8,1482.6 
			1529.8,1470.2 1470.2,1470.2 		"/>
		<polygon class="st1" points="1642.4,1508.7 1604,1470.4 1595.3,1479.2 1633.7,1517.4 1595.2,1517.4 1595.2,1529.8 1654.8,1529.8 
			1654.8,1470.2 1642.4,1470.2 		"/>
		<polygon class="st1" points="1779.7,1479.2 1771,1470.4 1732.6,1508.7 1732.6,1470.2 1720.2,1470.2 1720.2,1529.8 1779.8,1529.8 
			1779.8,1517.4 1741.3,1517.4 		"/>
		<polygon class="st1" points="1845.3,1520.8 1854,1529.6 1892.4,1491.3 1892.4,1529.8 1904.8,1529.8 1904.8,1470.2 1845.2,1470.2 
			1845.2,1482.6 1883.7,1482.6 		"/>
		<polygon class="st1" points="1970.2,1529.8 1982.6,1529.8 1982.6,1491.3 2000,1508.7 2000,1491.2 1991.3,1482.6 2000,1482.6 
			2000,1470.2 1970.2,1470.2 		"/>
		<polygon class="st1" points="0,2000 8.8,2000 0,1991.2 		"/>
		<rect y="1970.2" class="st1" width="29.8" height="12.4"/>
		<polygon class="st1" points="95.3,1979.2 116.2,2000 133.7,2000 104,1970.4 		"/>
		<rect x="142.4" y="1970.2" class="st1" width="12.4" height="29.8"/>
		<polygon class="st1" points="241.3,2000 258.8,2000 279.7,1979.2 271,1970.4 		"/>
		<rect x="220.2" y="1970.2" class="st1" width="12.4" height="29.8"/>
		<polygon class="st1" points="345.2,1982.6 383.7,1982.6 366.2,2000 383.7,2000 392.4,1991.3 392.4,2000 404.8,2000 404.8,1970.2 
			345.2,1970.2 		"/>
		<polygon class="st1" points="470.2,2000 482.6,2000 482.6,1991.3 491.3,2000 508.8,2000 491.3,1982.6 529.8,1982.6 529.8,1970.2 
			470.2,1970.2 		"/>
		<polygon class="st1" points="595.3,1979.2 616.2,2000 633.7,2000 604,1970.4 		"/>
		<rect x="642.4" y="1970.2" class="st1" width="12.4" height="29.8"/>
		<rect x="720.2" y="1970.2" class="st1" width="12.4" height="29.8"/>
		<polygon class="st1" points="741.3,2000 758.8,2000 779.7,1979.2 771,1970.4 		"/>
		<polygon class="st1" points="845.2,1982.6 883.7,1982.6 866.2,2000 883.7,2000 892.4,1991.3 892.4,2000 904.8,2000 904.8,1970.2 
			845.2,1970.2 		"/>
		<polygon class="st1" points="970.2,2000 982.6,2000 982.6,1991.3 991.3,2000 1008.8,2000 991.3,1982.6 1029.8,1982.6 
			1029.8,1970.2 970.2,1970.2 		"/>
		<rect x="1142.4" y="1970.2" class="st1" width="12.4" height="29.8"/>
		<polygon class="st1" points="1095.3,1979.2 1116.2,2000 1133.7,2000 1104,1970.4 		"/>
		<polygon class="st1" points="1241.3,2000 1258.8,2000 1279.7,1979.2 1271,1970.4 		"/>
		<rect x="1220.2" y="1970.2" class="st1" width="12.4" height="29.8"/>
		<polygon class="st1" points="1345.2,1982.6 1383.7,1982.6 1366.2,2000 1383.7,2000 1392.4,1991.3 1392.4,2000 1404.8,2000 
			1404.8,1970.2 1345.2,1970.2 		"/>
		<polygon class="st1" points="1470.2,2000 1482.6,2000 1482.6,1991.3 1491.3,2000 1508.8,2000 1491.3,1982.6 1529.8,1982.6 
			1529.8,1970.2 1470.2,1970.2 		"/>
		<rect x="1642.4" y="1970.2" class="st1" width="12.4" height="29.8"/>
		<polygon class="st1" points="1595.3,1979.2 1616.2,2000 1633.7,2000 1604,1970.4 		"/>
		<rect x="1720.2" y="1970.2" class="st1" width="12.4" height="29.8"/>
		<polygon class="st1" points="1741.3,2000 1758.8,2000 1779.7,1979.2 1771,1970.4 		"/>
		<polygon class="st1" points="1845.2,1982.6 1883.7,1982.6 1866.2,2000 1883.7,2000 1892.4,1991.3 1892.4,2000 1904.8,2000 
			1904.8,1970.2 1845.2,1970.2 		"/>
		<polygon class="st1" points="1970.2,2000 1982.6,2000 1982.6,1991.3 1991.3,2000 2000,2000 2000,1991.2 1991.3,1982.6 
			2000,1982.6 2000,1970.2 1970.2,1970.2 		"/>
		<rect x="1970.2" y="142.4" class="st1" width="29.8" height="12.4"/>
		<polygon class="st1" points="1970.3,104.2 2000,133.8 2000,116.3 1979,95.4 		"/>
		<polygon class="st1" points="1845.2,154.8 1857.6,154.8 1857.6,116.3 1896,154.6 1904.7,145.8 1866.3,107.6 1904.8,107.6 
			1904.8,95.2 1845.2,95.2 		"/>
		<polygon class="st1" points="1720.2,107.6 1758.7,107.6 1720.3,145.8 1729,154.6 1767.4,116.3 1767.4,154.8 1779.8,154.8 
			1779.8,95.2 1720.2,95.2 		"/>
		<polygon class="st1" points="1654.7,104.2 1646,95.4 1607.6,133.7 1607.6,95.2 1595.2,95.2 1595.2,154.8 1654.8,154.8 
			1654.8,142.4 1616.3,142.4 		"/>
		<polygon class="st1" points="1517.4,133.7 1479,95.4 1470.3,104.2 1508.7,142.4 1470.2,142.4 1470.2,154.8 1529.8,154.8 
			1529.8,95.2 1517.4,95.2 		"/>
		<polygon class="st1" points="1345.2,154.8 1357.6,154.8 1357.6,116.3 1396,154.6 1404.7,145.8 1366.3,107.6 1404.8,107.6 
			1404.8,95.2 1345.2,95.2 		"/>
		<polygon class="st1" points="1220.2,107.6 1258.7,107.6 1220.3,145.8 1229,154.6 1267.4,116.3 1267.4,154.8 1279.8,154.8 
			1279.8,95.2 1220.2,95.2 		"/>
		<polygon class="st1" points="1154.7,104.2 1146,95.4 1107.6,133.7 1107.6,95.2 1095.2,95.2 1095.2,154.8 1154.8,154.8 
			1154.8,142.4 1116.3,142.4 		"/>
		<polygon class="st1" points="1017.4,133.7 979,95.4 970.3,104.2 1008.7,142.4 970.2,142.4 970.2,154.8 1029.8,154.8 1029.8,95.2 
			1017.4,95.2 		"/>
		<polygon class="st1" points="845.2,154.8 857.6,154.8 857.6,116.3 896,154.6 904.7,145.8 866.3,107.6 904.8,107.6 904.8,95.2 
			845.2,95.2 		"/>
		<polygon class="st1" points="720.2,107.6 758.7,107.6 720.3,145.8 729,154.6 767.4,116.3 767.4,154.8 779.8,154.8 779.8,95.2 
			720.2,95.2 		"/>
		<polygon class="st1" points="654.7,104.2 646,95.4 607.6,133.7 607.6,95.2 595.2,95.2 595.2,154.8 654.8,154.8 654.8,142.4 
			616.3,142.4 		"/>
		<polygon class="st1" points="517.4,133.7 479,95.4 470.3,104.2 508.7,142.4 470.2,142.4 470.2,154.8 529.8,154.8 529.8,95.2 
			517.4,95.2 		"/>
		<polygon class="st1" points="345.2,154.8 357.6,154.8 357.6,116.3 396,154.6 404.7,145.8 366.3,107.6 404.8,107.6 404.8,95.2 
			345.2,95.2 		"/>
		<polygon class="st1" points="220.2,107.6 258.7,107.6 220.3,145.8 229,154.6 267.4,116.3 267.4,154.8 279.8,154.8 279.8,95.2 
			220.2,95.2 		"/>
		<polygon class="st1" points="154.7,104.2 146,95.4 107.6,133.7 107.6,95.2 95.2,95.2 95.2,154.8 154.8,154.8 154.8,142.4 
			116.3,142.4 		"/>
		<polygon class="st1" points="17.4,133.7 0,116.3 0,133.8 8.7,142.4 0,142.4 0,154.8 29.8,154.8 29.8,95.2 17.4,95.2 		"/>
		<polygon class="st1" points="1970.3,604.2 2000,633.8 2000,616.3 1979,595.4 		"/>
		<rect x="1970.2" y="642.4" class="st1" width="29.8" height="12.4"/>
		<polygon class="st1" points="1845.2,654.8 1857.6,654.8 1857.6,616.3 1896,654.6 1904.7,645.8 1866.3,607.6 1904.8,607.6 
			1904.8,595.2 1845.2,595.2 		"/>
		<polygon class="st1" points="1720.2,607.6 1758.7,607.6 1720.3,645.8 1729,654.6 1767.4,616.3 1767.4,654.8 1779.8,654.8 
			1779.8,595.2 1720.2,595.2 		"/>
		<polygon class="st1" points="1654.7,604.2 1646,595.4 1607.6,633.7 1607.6,595.2 1595.2,595.2 1595.2,654.8 1654.8,654.8 
			1654.8,642.4 1616.3,642.4 		"/>
		<polygon class="st1" points="1517.4,633.7 1479,595.4 1470.3,604.2 1508.7,642.4 1470.2,642.4 1470.2,654.8 1529.8,654.8 
			1529.8,595.2 1517.4,595.2 		"/>
		<polygon class="st1" points="1345.2,654.8 1357.6,654.8 1357.6,616.3 1396,654.6 1404.7,645.8 1366.3,607.6 1404.8,607.6 
			1404.8,595.2 1345.2,595.2 		"/>
		<polygon class="st1" points="1220.2,607.6 1258.7,607.6 1220.3,645.8 1229,654.6 1267.4,616.3 1267.4,654.8 1279.8,654.8 
			1279.8,595.2 1220.2,595.2 		"/>
		<polygon class="st1" points="1154.7,604.2 1146,595.4 1107.6,633.7 1107.6,595.2 1095.2,595.2 1095.2,654.8 1154.8,654.8 
			1154.8,642.4 1116.3,642.4 		"/>
		<polygon class="st1" points="1017.4,633.7 979,595.4 970.3,604.2 1008.7,642.4 970.2,642.4 970.2,654.8 1029.8,654.8 
			1029.8,595.2 1017.4,595.2 		"/>
		<polygon class="st1" points="845.2,654.8 857.6,654.8 857.6,616.3 896,654.6 904.7,645.8 866.3,607.6 904.8,607.6 904.8,595.2 
			845.2,595.2 		"/>
		<polygon class="st1" points="720.2,607.6 758.7,607.6 720.3,645.8 729,654.6 767.4,616.3 767.4,654.8 779.8,654.8 779.8,595.2 
			720.2,595.2 		"/>
		<polygon class="st1" points="654.7,604.2 646,595.4 607.6,633.7 607.6,595.2 595.2,595.2 595.2,654.8 654.8,654.8 654.8,642.4 
			616.3,642.4 		"/>
		<polygon class="st1" points="517.4,633.7 479,595.4 470.3,604.2 508.7,642.4 470.2,642.4 470.2,654.8 529.8,654.8 529.8,595.2 
			517.4,595.2 		"/>
		<polygon class="st1" points="345.2,654.8 357.6,654.8 357.6,616.3 396,654.6 404.7,645.8 366.3,607.6 404.8,607.6 404.8,595.2 
			345.2,595.2 		"/>
		<polygon class="st1" points="220.2,607.6 258.7,607.6 220.3,645.8 229,654.6 267.4,616.3 267.4,654.8 279.8,654.8 279.8,595.2 
			220.2,595.2 		"/>
		<polygon class="st1" points="154.7,604.2 146,595.4 107.6,633.7 107.6,595.2 95.2,595.2 95.2,654.8 154.8,654.8 154.8,642.4 
			116.3,642.4 		"/>
		<polygon class="st1" points="17.4,633.7 0,616.3 0,633.8 8.7,642.4 0,642.4 0,654.8 29.8,654.8 29.8,595.2 17.4,595.2 		"/>
		<polygon class="st1" points="1970.3,1104.2 2000,1133.8 2000,1116.3 1979,1095.4 		"/>
		<rect x="1970.2" y="1142.4" class="st1" width="29.8" height="12.4"/>
		<polygon class="st1" points="1845.2,1154.8 1857.6,1154.8 1857.6,1116.3 1896,1154.6 1904.7,1145.8 1866.3,1107.6 1904.8,1107.6 
			1904.8,1095.2 1845.2,1095.2 		"/>
		<polygon class="st1" points="1720.2,1107.6 1758.7,1107.6 1720.3,1145.8 1729,1154.6 1767.4,1116.3 1767.4,1154.8 1779.8,1154.8 
			1779.8,1095.2 1720.2,1095.2 		"/>
		<polygon class="st1" points="1654.7,1104.2 1646,1095.4 1607.6,1133.7 1607.6,1095.2 1595.2,1095.2 1595.2,1154.8 1654.8,1154.8 
			1654.8,1142.4 1616.3,1142.4 		"/>
		<polygon class="st1" points="1517.4,1133.7 1479,1095.4 1470.3,1104.2 1508.7,1142.4 1470.2,1142.4 1470.2,1154.8 1529.8,1154.8 
			1529.8,1095.2 1517.4,1095.2 		"/>
		<polygon class="st1" points="1345.2,1154.8 1357.6,1154.8 1357.6,1116.3 1396,1154.6 1404.7,1145.8 1366.3,1107.6 1404.8,1107.6 
			1404.8,1095.2 1345.2,1095.2 		"/>
		<polygon class="st1" points="1220.2,1107.6 1258.7,1107.6 1220.3,1145.8 1229,1154.6 1267.4,1116.3 1267.4,1154.8 1279.8,1154.8 
			1279.8,1095.2 1220.2,1095.2 		"/>
		<polygon class="st1" points="1154.7,1104.2 1146,1095.4 1107.6,1133.7 1107.6,1095.2 1095.2,1095.2 1095.2,1154.8 1154.8,1154.8 
			1154.8,1142.4 1116.3,1142.4 		"/>
		<polygon class="st1" points="1017.4,1133.7 979,1095.4 970.3,1104.2 1008.7,1142.4 970.2,1142.4 970.2,1154.8 1029.8,1154.8 
			1029.8,1095.2 1017.4,1095.2 		"/>
		<polygon class="st1" points="845.2,1154.8 857.6,1154.8 857.6,1116.3 896,1154.6 904.7,1145.8 866.3,1107.6 904.8,1107.6 
			904.8,1095.2 845.2,1095.2 		"/>
		<polygon class="st1" points="720.2,1107.6 758.7,1107.6 720.3,1145.8 729,1154.6 767.4,1116.3 767.4,1154.8 779.8,1154.8 
			779.8,1095.2 720.2,1095.2 		"/>
		<polygon class="st1" points="654.7,1104.2 646,1095.4 607.6,1133.7 607.6,1095.2 595.2,1095.2 595.2,1154.8 654.8,1154.8 
			654.8,1142.4 616.3,1142.4 		"/>
		<polygon class="st1" points="517.4,1133.7 479,1095.4 470.3,1104.2 508.7,1142.4 470.2,1142.4 470.2,1154.8 529.8,1154.8 
			529.8,1095.2 517.4,1095.2 		"/>
		<polygon class="st1" points="345.2,1154.8 357.6,1154.8 357.6,1116.3 396,1154.6 404.7,1145.8 366.3,1107.6 404.8,1107.6 
			404.8,1095.2 345.2,1095.2 		"/>
		<polygon class="st1" points="220.2,1107.6 258.7,1107.6 220.3,1145.8 229,1154.6 267.4,1116.3 267.4,1154.8 279.8,1154.8 
			279.8,1095.2 220.2,1095.2 		"/>
		<polygon class="st1" points="154.7,1104.2 146,1095.4 107.6,1133.7 107.6,1095.2 95.2,1095.2 95.2,1154.8 154.8,1154.8 
			154.8,1142.4 116.3,1142.4 		"/>
		<polygon class="st1" points="17.4,1133.7 0,1116.3 0,1133.8 8.7,1142.4 0,1142.4 0,1154.8 29.8,1154.8 29.8,1095.2 17.4,1095.2 		
			"/>
		<polygon class="st1" points="1970.3,1604.2 2000,1633.8 2000,1616.3 1979,1595.4 		"/>
		<rect x="1970.2" y="1642.4" class="st1" width="29.8" height="12.4"/>
		<polygon class="st1" points="1845.2,1654.8 1857.6,1654.8 1857.6,1616.3 1896,1654.6 1904.7,1645.8 1866.3,1607.6 1904.8,1607.6 
			1904.8,1595.2 1845.2,1595.2 		"/>
		<polygon class="st1" points="1720.2,1607.6 1758.7,1607.6 1720.3,1645.8 1729,1654.6 1767.4,1616.3 1767.4,1654.8 1779.8,1654.8 
			1779.8,1595.2 1720.2,1595.2 		"/>
		<polygon class="st1" points="1654.7,1604.2 1646,1595.4 1607.6,1633.7 1607.6,1595.2 1595.2,1595.2 1595.2,1654.8 1654.8,1654.8 
			1654.8,1642.4 1616.3,1642.4 		"/>
		<polygon class="st1" points="1517.4,1633.7 1479,1595.4 1470.3,1604.2 1508.7,1642.4 1470.2,1642.4 1470.2,1654.8 1529.8,1654.8 
			1529.8,1595.2 1517.4,1595.2 		"/>
		<polygon class="st1" points="1345.2,1654.8 1357.6,1654.8 1357.6,1616.3 1396,1654.6 1404.7,1645.8 1366.3,1607.6 1404.8,1607.6 
			1404.8,1595.2 1345.2,1595.2 		"/>
		<polygon class="st1" points="1220.2,1607.6 1258.7,1607.6 1220.3,1645.8 1229,1654.6 1267.4,1616.3 1267.4,1654.8 1279.8,1654.8 
			1279.8,1595.2 1220.2,1595.2 		"/>
		<polygon class="st1" points="1154.7,1604.2 1146,1595.4 1107.6,1633.7 1107.6,1595.2 1095.2,1595.2 1095.2,1654.8 1154.8,1654.8 
			1154.8,1642.4 1116.3,1642.4 		"/>
		<polygon class="st1" points="1017.4,1633.7 979,1595.4 970.3,1604.2 1008.7,1642.4 970.2,1642.4 970.2,1654.8 1029.8,1654.8 
			1029.8,1595.2 1017.4,1595.2 		"/>
		<polygon class="st1" points="845.2,1654.8 857.6,1654.8 857.6,1616.3 896,1654.6 904.7,1645.8 866.3,1607.6 904.8,1607.6 
			904.8,1595.2 845.2,1595.2 		"/>
		<polygon class="st1" points="720.2,1607.6 758.7,1607.6 720.3,1645.8 729,1654.6 767.4,1616.3 767.4,1654.8 779.8,1654.8 
			779.8,1595.2 720.2,1595.2 		"/>
		<polygon class="st1" points="654.7,1604.2 646,1595.4 607.6,1633.7 607.6,1595.2 595.2,1595.2 595.2,1654.8 654.8,1654.8 
			654.8,1642.4 616.3,1642.4 		"/>
		<polygon class="st1" points="517.4,1633.7 479,1595.4 470.3,1604.2 508.7,1642.4 470.2,1642.4 470.2,1654.8 529.8,1654.8 
			529.8,1595.2 517.4,1595.2 		"/>
		<polygon class="st1" points="345.2,1654.8 357.6,1654.8 357.6,1616.3 396,1654.6 404.7,1645.8 366.3,1607.6 404.8,1607.6 
			404.8,1595.2 345.2,1595.2 		"/>
		<polygon class="st1" points="220.2,1607.6 258.7,1607.6 220.3,1645.8 229,1654.6 267.4,1616.3 267.4,1654.8 279.8,1654.8 
			279.8,1595.2 220.2,1595.2 		"/>
		<polygon class="st1" points="154.7,1604.2 146,1595.4 107.6,1633.7 107.6,1595.2 95.2,1595.2 95.2,1654.8 154.8,1654.8 
			154.8,1642.4 116.3,1642.4 		"/>
		<polygon class="st1" points="17.4,1633.7 0,1616.3 0,1633.8 8.7,1642.4 0,1642.4 0,1654.8 29.8,1654.8 29.8,1595.2 17.4,1595.2 		
			"/>
		<rect x="1970.2" y="220.2" class="st1" width="29.8" height="12.4"/>
		<polygon class="st1" points="1979,279.6 2000,258.7 2000,241.2 1970.3,270.8 		"/>
		<polygon class="st1" points="1904.7,229.2 1896,220.4 1857.6,258.7 1857.6,220.2 1845.2,220.2 1845.2,279.8 1904.8,279.8 
			1904.8,267.4 1866.3,267.4 		"/>
		<polygon class="st1" points="1767.4,258.7 1729,220.4 1720.3,229.2 1758.7,267.4 1720.2,267.4 1720.2,279.8 1779.8,279.8 
			1779.8,220.2 1767.4,220.2 		"/>
		<polygon class="st1" points="1595.2,279.8 1607.6,279.8 1607.6,241.3 1646,279.6 1654.7,270.8 1616.3,232.6 1654.8,232.6 
			1654.8,220.2 1595.2,220.2 		"/>
		<polygon class="st1" points="1470.2,232.6 1508.7,232.6 1470.3,270.8 1479,279.6 1517.4,241.3 1517.4,279.8 1529.8,279.8 
			1529.8,220.2 1470.2,220.2 		"/>
		<polygon class="st1" points="1404.7,229.2 1396,220.4 1357.6,258.7 1357.6,220.2 1345.2,220.2 1345.2,279.8 1404.8,279.8 
			1404.8,267.4 1366.3,267.4 		"/>
		<polygon class="st1" points="1267.4,258.7 1229,220.4 1220.3,229.2 1258.7,267.4 1220.2,267.4 1220.2,279.8 1279.8,279.8 
			1279.8,220.2 1267.4,220.2 		"/>
		<polygon class="st1" points="1095.2,279.8 1107.6,279.8 1107.6,241.3 1146,279.6 1154.7,270.8 1116.3,232.6 1154.8,232.6 
			1154.8,220.2 1095.2,220.2 		"/>
		<polygon class="st1" points="970.2,232.6 1008.7,232.6 970.3,270.8 979,279.6 1017.4,241.3 1017.4,279.8 1029.8,279.8 
			1029.8,220.2 970.2,220.2 		"/>
		<polygon class="st1" points="904.7,229.2 896,220.4 857.6,258.7 857.6,220.2 845.2,220.2 845.2,279.8 904.8,279.8 904.8,267.4 
			866.3,267.4 		"/>
		<polygon class="st1" points="767.4,258.7 729,220.4 720.3,229.2 758.7,267.4 720.2,267.4 720.2,279.8 779.8,279.8 779.8,220.2 
			767.4,220.2 		"/>
		<polygon class="st1" points="595.2,279.8 607.6,279.8 607.6,241.3 646,279.6 654.7,270.8 616.3,232.6 654.8,232.6 654.8,220.2 
			595.2,220.2 		"/>
		<polygon class="st1" points="470.2,232.6 508.7,232.6 470.3,270.8 479,279.6 517.4,241.3 517.4,279.8 529.8,279.8 529.8,220.2 
			470.2,220.2 		"/>
		<polygon class="st1" points="404.7,229.2 396,220.4 357.6,258.7 357.6,220.2 345.2,220.2 345.2,279.8 404.8,279.8 404.8,267.4 
			366.3,267.4 		"/>
		<polygon class="st1" points="267.4,258.7 229,220.4 220.3,229.2 258.7,267.4 220.2,267.4 220.2,279.8 279.8,279.8 279.8,220.2 
			267.4,220.2 		"/>
		<polygon class="st1" points="95.2,279.8 107.6,279.8 107.6,241.3 146,279.6 154.7,270.8 116.3,232.6 154.8,232.6 154.8,220.2 
			95.2,220.2 		"/>
		<polygon class="st1" points="0,232.6 8.7,232.6 0,241.2 0,258.7 17.4,241.3 17.4,279.8 29.8,279.8 29.8,220.2 0,220.2 		"/>
		<polygon class="st1" points="1979,779.6 2000,758.7 2000,741.2 1970.3,770.8 		"/>
		<rect x="1970.2" y="720.2" class="st1" width="29.8" height="12.4"/>
		<polygon class="st1" points="1904.7,729.2 1896,720.4 1857.6,758.7 1857.6,720.2 1845.2,720.2 1845.2,779.8 1904.8,779.8 
			1904.8,767.4 1866.3,767.4 		"/>
		<polygon class="st1" points="1767.4,758.7 1729,720.4 1720.3,729.2 1758.7,767.4 1720.2,767.4 1720.2,779.8 1779.8,779.8 
			1779.8,720.2 1767.4,720.2 		"/>
		<polygon class="st1" points="1595.2,779.8 1607.6,779.8 1607.6,741.3 1646,779.6 1654.7,770.8 1616.3,732.6 1654.8,732.6 
			1654.8,720.2 1595.2,720.2 		"/>
		<polygon class="st1" points="1470.2,732.6 1508.7,732.6 1470.3,770.8 1479,779.6 1517.4,741.3 1517.4,779.8 1529.8,779.8 
			1529.8,720.2 1470.2,720.2 		"/>
		<polygon class="st1" points="1404.7,729.2 1396,720.4 1357.6,758.7 1357.6,720.2 1345.2,720.2 1345.2,779.8 1404.8,779.8 
			1404.8,767.4 1366.3,767.4 		"/>
		<polygon class="st1" points="1267.4,758.7 1229,720.4 1220.3,729.2 1258.7,767.4 1220.2,767.4 1220.2,779.8 1279.8,779.8 
			1279.8,720.2 1267.4,720.2 		"/>
		<polygon class="st1" points="1095.2,779.8 1107.6,779.8 1107.6,741.3 1146,779.6 1154.7,770.8 1116.3,732.6 1154.8,732.6 
			1154.8,720.2 1095.2,720.2 		"/>
		<polygon class="st1" points="970.2,732.6 1008.7,732.6 970.3,770.8 979,779.6 1017.4,741.3 1017.4,779.8 1029.8,779.8 
			1029.8,720.2 970.2,720.2 		"/>
		<polygon class="st1" points="904.7,729.2 896,720.4 857.6,758.7 857.6,720.2 845.2,720.2 845.2,779.8 904.8,779.8 904.8,767.4 
			866.3,767.4 		"/>
		<polygon class="st1" points="767.4,758.7 729,720.4 720.3,729.2 758.7,767.4 720.2,767.4 720.2,779.8 779.8,779.8 779.8,720.2 
			767.4,720.2 		"/>
		<polygon class="st1" points="595.2,779.8 607.6,779.8 607.6,741.3 646,779.6 654.7,770.8 616.3,732.6 654.8,732.6 654.8,720.2 
			595.2,720.2 		"/>
		<polygon class="st1" points="470.2,732.6 508.7,732.6 470.3,770.8 479,779.6 517.4,741.3 517.4,779.8 529.8,779.8 529.8,720.2 
			470.2,720.2 		"/>
		<polygon class="st1" points="404.7,729.2 396,720.4 357.6,758.7 357.6,720.2 345.2,720.2 345.2,779.8 404.8,779.8 404.8,767.4 
			366.3,767.4 		"/>
		<polygon class="st1" points="267.4,758.7 229,720.4 220.3,729.2 258.7,767.4 220.2,767.4 220.2,779.8 279.8,779.8 279.8,720.2 
			267.4,720.2 		"/>
		<polygon class="st1" points="95.2,779.8 107.6,779.8 107.6,741.3 146,779.6 154.7,770.8 116.3,732.6 154.8,732.6 154.8,720.2 
			95.2,720.2 		"/>
		<polygon class="st1" points="0,732.6 8.7,732.6 0,741.2 0,758.7 17.4,741.3 17.4,779.8 29.8,779.8 29.8,720.2 0,720.2 		"/>
		<polygon class="st1" points="1979,1279.6 2000,1258.7 2000,1241.2 1970.3,1270.8 		"/>
		<rect x="1970.2" y="1220.2" class="st1" width="29.8" height="12.4"/>
		<polygon class="st1" points="1904.7,1229.2 1896,1220.4 1857.6,1258.7 1857.6,1220.2 1845.2,1220.2 1845.2,1279.8 1904.8,1279.8 
			1904.8,1267.4 1866.3,1267.4 		"/>
		<polygon class="st1" points="1767.4,1258.7 1729,1220.4 1720.3,1229.2 1758.7,1267.4 1720.2,1267.4 1720.2,1279.8 1779.8,1279.8 
			1779.8,1220.2 1767.4,1220.2 		"/>
		<polygon class="st1" points="1595.2,1279.8 1607.6,1279.8 1607.6,1241.3 1646,1279.6 1654.7,1270.8 1616.3,1232.6 1654.8,1232.6 
			1654.8,1220.2 1595.2,1220.2 		"/>
		<polygon class="st1" points="1470.2,1232.6 1508.7,1232.6 1470.3,1270.8 1479,1279.6 1517.4,1241.3 1517.4,1279.8 1529.8,1279.8 
			1529.8,1220.2 1470.2,1220.2 		"/>
		<polygon class="st1" points="1404.7,1229.2 1396,1220.4 1357.6,1258.7 1357.6,1220.2 1345.2,1220.2 1345.2,1279.8 1404.8,1279.8 
			1404.8,1267.4 1366.3,1267.4 		"/>
		<polygon class="st1" points="1267.4,1258.7 1229,1220.4 1220.3,1229.2 1258.7,1267.4 1220.2,1267.4 1220.2,1279.8 1279.8,1279.8 
			1279.8,1220.2 1267.4,1220.2 		"/>
		<polygon class="st1" points="1095.2,1279.8 1107.6,1279.8 1107.6,1241.3 1146,1279.6 1154.7,1270.8 1116.3,1232.6 1154.8,1232.6 
			1154.8,1220.2 1095.2,1220.2 		"/>
		<polygon class="st1" points="970.2,1232.6 1008.7,1232.6 970.3,1270.8 979,1279.6 1017.4,1241.3 1017.4,1279.8 1029.8,1279.8 
			1029.8,1220.2 970.2,1220.2 		"/>
		<polygon class="st1" points="904.7,1229.2 896,1220.4 857.6,1258.7 857.6,1220.2 845.2,1220.2 845.2,1279.8 904.8,1279.8 
			904.8,1267.4 866.3,1267.4 		"/>
		<polygon class="st1" points="767.4,1258.7 729,1220.4 720.3,1229.2 758.7,1267.4 720.2,1267.4 720.2,1279.8 779.8,1279.8 
			779.8,1220.2 767.4,1220.2 		"/>
		<polygon class="st1" points="595.2,1279.8 607.6,1279.8 607.6,1241.3 646,1279.6 654.7,1270.8 616.3,1232.6 654.8,1232.6 
			654.8,1220.2 595.2,1220.2 		"/>
		<polygon class="st1" points="470.2,1232.6 508.7,1232.6 470.3,1270.8 479,1279.6 517.4,1241.3 517.4,1279.8 529.8,1279.8 
			529.8,1220.2 470.2,1220.2 		"/>
		<polygon class="st1" points="404.7,1229.2 396,1220.4 357.6,1258.7 357.6,1220.2 345.2,1220.2 345.2,1279.8 404.8,1279.8 
			404.8,1267.4 366.3,1267.4 		"/>
		<polygon class="st1" points="267.4,1258.7 229,1220.4 220.3,1229.2 258.7,1267.4 220.2,1267.4 220.2,1279.8 279.8,1279.8 
			279.8,1220.2 267.4,1220.2 		"/>
		<polygon class="st1" points="95.2,1279.8 107.6,1279.8 107.6,1241.3 146,1279.6 154.7,1270.8 116.3,1232.6 154.8,1232.6 
			154.8,1220.2 95.2,1220.2 		"/>
		<polygon class="st1" points="0,1232.6 8.7,1232.6 0,1241.2 0,1258.7 17.4,1241.3 17.4,1279.8 29.8,1279.8 29.8,1220.2 0,1220.2 		
			"/>
		<rect x="1970.2" y="1720.2" class="st1" width="29.8" height="12.4"/>
		<polygon class="st1" points="1979,1779.6 2000,1758.7 2000,1741.2 1970.3,1770.8 		"/>
		<polygon class="st1" points="1904.7,1729.2 1896,1720.4 1857.6,1758.7 1857.6,1720.2 1845.2,1720.2 1845.2,1779.8 1904.8,1779.8 
			1904.8,1767.4 1866.3,1767.4 		"/>
		<polygon class="st1" points="1767.4,1758.7 1729,1720.4 1720.3,1729.2 1758.7,1767.4 1720.2,1767.4 1720.2,1779.8 1779.8,1779.8 
			1779.8,1720.2 1767.4,1720.2 		"/>
		<polygon class="st1" points="1595.2,1779.8 1607.6,1779.8 1607.6,1741.3 1646,1779.6 1654.7,1770.8 1616.3,1732.6 1654.8,1732.6 
			1654.8,1720.2 1595.2,1720.2 		"/>
		<polygon class="st1" points="1470.2,1732.6 1508.7,1732.6 1470.3,1770.8 1479,1779.6 1517.4,1741.3 1517.4,1779.8 1529.8,1779.8 
			1529.8,1720.2 1470.2,1720.2 		"/>
		<polygon class="st1" points="1404.7,1729.2 1396,1720.4 1357.6,1758.7 1357.6,1720.2 1345.2,1720.2 1345.2,1779.8 1404.8,1779.8 
			1404.8,1767.4 1366.3,1767.4 		"/>
		<polygon class="st1" points="1267.4,1758.7 1229,1720.4 1220.3,1729.2 1258.7,1767.4 1220.2,1767.4 1220.2,1779.8 1279.8,1779.8 
			1279.8,1720.2 1267.4,1720.2 		"/>
		<polygon class="st1" points="1095.2,1779.8 1107.6,1779.8 1107.6,1741.3 1146,1779.6 1154.7,1770.8 1116.3,1732.6 1154.8,1732.6 
			1154.8,1720.2 1095.2,1720.2 		"/>
		<polygon class="st1" points="970.2,1732.6 1008.7,1732.6 970.3,1770.8 979,1779.6 1017.4,1741.3 1017.4,1779.8 1029.8,1779.8 
			1029.8,1720.2 970.2,1720.2 		"/>
		<polygon class="st1" points="904.7,1729.2 896,1720.4 857.6,1758.7 857.6,1720.2 845.2,1720.2 845.2,1779.8 904.8,1779.8 
			904.8,1767.4 866.3,1767.4 		"/>
		<polygon class="st1" points="767.4,1758.7 729,1720.4 720.3,1729.2 758.7,1767.4 720.2,1767.4 720.2,1779.8 779.8,1779.8 
			779.8,1720.2 767.4,1720.2 		"/>
		<polygon class="st1" points="595.2,1779.8 607.6,1779.8 607.6,1741.3 646,1779.6 654.7,1770.8 616.3,1732.6 654.8,1732.6 
			654.8,1720.2 595.2,1720.2 		"/>
		<polygon class="st1" points="470.2,1732.6 508.7,1732.6 470.3,1770.8 479,1779.6 517.4,1741.3 517.4,1779.8 529.8,1779.8 
			529.8,1720.2 470.2,1720.2 		"/>
		<polygon class="st1" points="404.7,1729.2 396,1720.4 357.6,1758.7 357.6,1720.2 345.2,1720.2 345.2,1779.8 404.8,1779.8 
			404.8,1767.4 366.3,1767.4 		"/>
		<polygon class="st1" points="267.4,1758.7 229,1720.4 220.3,1729.2 258.7,1767.4 220.2,1767.4 220.2,1779.8 279.8,1779.8 
			279.8,1720.2 267.4,1720.2 		"/>
		<polygon class="st1" points="95.2,1779.8 107.6,1779.8 107.6,1741.3 146,1779.6 154.7,1770.8 116.3,1732.6 154.8,1732.6 
			154.8,1720.2 95.2,1720.2 		"/>
		<polygon class="st1" points="0,1732.6 8.7,1732.6 0,1741.2 0,1758.7 17.4,1741.3 17.4,1779.8 29.8,1779.8 29.8,1720.2 0,1720.2 		
			"/>
		<polygon class="st1" points="21,345.4 0,366.3 0,383.8 29.7,354.2 		"/>
		<rect y="392.4" class="st1" width="29.8" height="12.4"/>
		<polygon class="st1" points="95.3,395.8 104,404.6 142.4,366.3 142.4,404.8 154.8,404.8 154.8,345.2 95.2,345.2 95.2,357.6 
			133.7,357.6 		"/>
		<polygon class="st1" points="220.2,404.8 232.6,404.8 232.6,366.3 271,404.6 279.7,395.8 241.3,357.6 279.8,357.6 279.8,345.2 
			220.2,345.2 		"/>
		<polygon class="st1" points="404.8,345.2 392.4,345.2 392.4,383.7 354,345.4 345.3,354.2 383.7,392.4 345.2,392.4 345.2,404.8 
			404.8,404.8 		"/>
		<polygon class="st1" points="529.7,354.2 521,345.4 482.6,383.7 482.6,345.2 470.2,345.2 470.2,404.8 529.8,404.8 529.8,392.4 
			491.3,392.4 		"/>
		<polygon class="st1" points="595.2,357.6 633.7,357.6 595.3,395.8 604,404.6 642.4,366.3 642.4,404.8 654.8,404.8 654.8,345.2 
			595.2,345.2 		"/>
		<polygon class="st1" points="720.2,404.8 732.6,404.8 732.6,366.3 771,404.6 779.7,395.8 741.3,357.6 779.8,357.6 779.8,345.2 
			720.2,345.2 		"/>
		<polygon class="st1" points="892.4,383.7 854,345.4 845.3,354.2 883.7,392.4 845.2,392.4 845.2,404.8 904.8,404.8 904.8,345.2 
			892.4,345.2 		"/>
		<polygon class="st1" points="1029.7,354.2 1021,345.4 982.6,383.7 982.6,345.2 970.2,345.2 970.2,404.8 1029.8,404.8 
			1029.8,392.4 991.3,392.4 		"/>
		<polygon class="st1" points="1095.2,357.6 1133.7,357.6 1095.3,395.8 1104,404.6 1142.4,366.3 1142.4,404.8 1154.8,404.8 
			1154.8,345.2 1095.2,345.2 		"/>
		<polygon class="st1" points="1220.2,404.8 1232.6,404.8 1232.6,366.3 1271,404.6 1279.7,395.8 1241.3,357.6 1279.8,357.6 
			1279.8,345.2 1220.2,345.2 		"/>
		<polygon class="st1" points="1392.4,383.7 1354,345.4 1345.3,354.2 1383.7,392.4 1345.2,392.4 1345.2,404.8 1404.8,404.8 
			1404.8,345.2 1392.4,345.2 		"/>
		<polygon class="st1" points="1529.7,354.2 1521,345.4 1482.6,383.7 1482.6,345.2 1470.2,345.2 1470.2,404.8 1529.8,404.8 
			1529.8,392.4 1491.3,392.4 		"/>
		<polygon class="st1" points="1595.2,357.6 1633.7,357.6 1595.3,395.8 1604,404.6 1642.4,366.3 1642.4,404.8 1654.8,404.8 
			1654.8,345.2 1595.2,345.2 		"/>
		<polygon class="st1" points="1720.2,404.8 1732.6,404.8 1732.6,366.3 1771,404.6 1779.7,395.8 1741.3,357.6 1779.8,357.6 
			1779.8,345.2 1720.2,345.2 		"/>
		<polygon class="st1" points="1904.8,345.2 1892.4,345.2 1892.4,383.7 1854,345.4 1845.3,354.2 1883.7,392.4 1845.2,392.4 
			1845.2,404.8 1904.8,404.8 		"/>
		<polygon class="st1" points="1982.6,345.2 1970.2,345.2 1970.2,404.8 2000,404.8 2000,392.4 1991.3,392.4 2000,383.8 2000,366.3 
			1982.6,383.7 		"/>
		<polygon class="st1" points="21,845.4 0,866.3 0,883.8 29.7,854.2 		"/>
		<rect y="892.4" class="st1" width="29.8" height="12.4"/>
		<polygon class="st1" points="95.3,895.8 104,904.6 142.4,866.3 142.4,904.8 154.8,904.8 154.8,845.2 95.2,845.2 95.2,857.6 
			133.7,857.6 		"/>
		<polygon class="st1" points="220.2,904.8 232.6,904.8 232.6,866.3 271,904.6 279.7,895.8 241.3,857.6 279.8,857.6 279.8,845.2 
			220.2,845.2 		"/>
		<polygon class="st1" points="404.8,845.2 392.4,845.2 392.4,883.7 354,845.4 345.3,854.2 383.7,892.4 345.2,892.4 345.2,904.8 
			404.8,904.8 		"/>
		<polygon class="st1" points="529.7,854.2 521,845.4 482.6,883.7 482.6,845.2 470.2,845.2 470.2,904.8 529.8,904.8 529.8,892.4 
			491.3,892.4 		"/>
		<polygon class="st1" points="595.2,857.6 633.7,857.6 595.3,895.8 604,904.6 642.4,866.3 642.4,904.8 654.8,904.8 654.8,845.2 
			595.2,845.2 		"/>
		<polygon class="st1" points="720.2,904.8 732.6,904.8 732.6,866.3 771,904.6 779.7,895.8 741.3,857.6 779.8,857.6 779.8,845.2 
			720.2,845.2 		"/>
		<polygon class="st1" points="892.4,883.7 854,845.4 845.3,854.2 883.7,892.4 845.2,892.4 845.2,904.8 904.8,904.8 904.8,845.2 
			892.4,845.2 		"/>
		<polygon class="st1" points="1029.7,854.2 1021,845.4 982.6,883.7 982.6,845.2 970.2,845.2 970.2,904.8 1029.8,904.8 
			1029.8,892.4 991.3,892.4 		"/>
		<polygon class="st1" points="1095.2,857.6 1133.7,857.6 1095.3,895.8 1104,904.6 1142.4,866.3 1142.4,904.8 1154.8,904.8 
			1154.8,845.2 1095.2,845.2 		"/>
		<polygon class="st1" points="1220.2,904.8 1232.6,904.8 1232.6,866.3 1271,904.6 1279.7,895.8 1241.3,857.6 1279.8,857.6 
			1279.8,845.2 1220.2,845.2 		"/>
		<polygon class="st1" points="1392.4,883.7 1354,845.4 1345.3,854.2 1383.7,892.4 1345.2,892.4 1345.2,904.8 1404.8,904.8 
			1404.8,845.2 1392.4,845.2 		"/>
		<polygon class="st1" points="1529.7,854.2 1521,845.4 1482.6,883.7 1482.6,845.2 1470.2,845.2 1470.2,904.8 1529.8,904.8 
			1529.8,892.4 1491.3,892.4 		"/>
		<polygon class="st1" points="1595.2,857.6 1633.7,857.6 1595.3,895.8 1604,904.6 1642.4,866.3 1642.4,904.8 1654.8,904.8 
			1654.8,845.2 1595.2,845.2 		"/>
		<polygon class="st1" points="1720.2,904.8 1732.6,904.8 1732.6,866.3 1771,904.6 1779.7,895.8 1741.3,857.6 1779.8,857.6 
			1779.8,845.2 1720.2,845.2 		"/>
		<polygon class="st1" points="1904.8,845.2 1892.4,845.2 1892.4,883.7 1854,845.4 1845.3,854.2 1883.7,892.4 1845.2,892.4 
			1845.2,904.8 1904.8,904.8 		"/>
		<polygon class="st1" points="1982.6,845.2 1970.2,845.2 1970.2,904.8 2000,904.8 2000,892.4 1991.3,892.4 2000,883.8 2000,866.3 
			1982.6,883.7 		"/>
		<polygon class="st1" points="21,1345.4 0,1366.3 0,1383.8 29.7,1354.2 		"/>
		<rect y="1392.4" class="st1" width="29.8" height="12.4"/>
		<polygon class="st1" points="95.3,1395.8 104,1404.6 142.4,1366.3 142.4,1404.8 154.8,1404.8 154.8,1345.2 95.2,1345.2 
			95.2,1357.6 133.7,1357.6 		"/>
		<polygon class="st1" points="220.2,1404.8 232.6,1404.8 232.6,1366.3 271,1404.6 279.7,1395.8 241.3,1357.6 279.8,1357.6 
			279.8,1345.2 220.2,1345.2 		"/>
		<polygon class="st1" points="404.8,1345.2 392.4,1345.2 392.4,1383.7 354,1345.4 345.3,1354.2 383.7,1392.4 345.2,1392.4 
			345.2,1404.8 404.8,1404.8 		"/>
		<polygon class="st1" points="529.7,1354.2 521,1345.4 482.6,1383.7 482.6,1345.2 470.2,1345.2 470.2,1404.8 529.8,1404.8 
			529.8,1392.4 491.3,1392.4 		"/>
		<polygon class="st1" points="595.2,1357.6 633.7,1357.6 595.3,1395.8 604,1404.6 642.4,1366.3 642.4,1404.8 654.8,1404.8 
			654.8,1345.2 595.2,1345.2 		"/>
		<polygon class="st1" points="720.2,1404.8 732.6,1404.8 732.6,1366.3 771,1404.6 779.7,1395.8 741.3,1357.6 779.8,1357.6 
			779.8,1345.2 720.2,1345.2 		"/>
		<polygon class="st1" points="892.4,1383.7 854,1345.4 845.3,1354.2 883.7,1392.4 845.2,1392.4 845.2,1404.8 904.8,1404.8 
			904.8,1345.2 892.4,1345.2 		"/>
		<polygon class="st1" points="1029.7,1354.2 1021,1345.4 982.6,1383.7 982.6,1345.2 970.2,1345.2 970.2,1404.8 1029.8,1404.8 
			1029.8,1392.4 991.3,1392.4 		"/>
		<polygon class="st1" points="1095.2,1357.6 1133.7,1357.6 1095.3,1395.8 1104,1404.6 1142.4,1366.3 1142.4,1404.8 1154.8,1404.8 
			1154.8,1345.2 1095.2,1345.2 		"/>
		<polygon class="st1" points="1220.2,1404.8 1232.6,1404.8 1232.6,1366.3 1271,1404.6 1279.7,1395.8 1241.3,1357.6 1279.8,1357.6 
			1279.8,1345.2 1220.2,1345.2 		"/>
		<polygon class="st1" points="1392.4,1383.7 1354,1345.4 1345.3,1354.2 1383.7,1392.4 1345.2,1392.4 1345.2,1404.8 1404.8,1404.8 
			1404.8,1345.2 1392.4,1345.2 		"/>
		<polygon class="st1" points="1529.7,1354.2 1521,1345.4 1482.6,1383.7 1482.6,1345.2 1470.2,1345.2 1470.2,1404.8 1529.8,1404.8 
			1529.8,1392.4 1491.3,1392.4 		"/>
		<polygon class="st1" points="1595.2,1357.6 1633.7,1357.6 1595.3,1395.8 1604,1404.6 1642.4,1366.3 1642.4,1404.8 1654.8,1404.8 
			1654.8,1345.2 1595.2,1345.2 		"/>
		<polygon class="st1" points="1720.2,1404.8 1732.6,1404.8 1732.6,1366.3 1771,1404.6 1779.7,1395.8 1741.3,1357.6 1779.8,1357.6 
			1779.8,1345.2 1720.2,1345.2 		"/>
		<polygon class="st1" points="1904.8,1345.2 1892.4,1345.2 1892.4,1383.7 1854,1345.4 1845.3,1354.2 1883.7,1392.4 1845.2,1392.4 
			1845.2,1404.8 1904.8,1404.8 		"/>
		<polygon class="st1" points="1982.6,1345.2 1970.2,1345.2 1970.2,1404.8 2000,1404.8 2000,1392.4 1991.3,1392.4 2000,1383.8 
			2000,1366.3 1982.6,1383.7 		"/>
		<polygon class="st1" points="21,1845.4 0,1866.3 0,1883.8 29.7,1854.2 		"/>
		<rect y="1892.4" class="st1" width="29.8" height="12.4"/>
		<polygon class="st1" points="95.2,1857.6 133.7,1857.6 95.3,1895.8 104,1904.6 142.4,1866.3 142.4,1904.8 154.8,1904.8 
			154.8,1845.2 95.2,1845.2 		"/>
		<polygon class="st1" points="220.2,1904.8 232.6,1904.8 232.6,1866.3 271,1904.6 279.7,1895.8 241.3,1857.6 279.8,1857.6 
			279.8,1845.2 220.2,1845.2 		"/>
		<polygon class="st1" points="392.4,1883.7 354,1845.4 345.3,1854.2 383.7,1892.4 345.2,1892.4 345.2,1904.8 404.8,1904.8 
			404.8,1845.2 392.4,1845.2 		"/>
		<polygon class="st1" points="529.7,1854.2 521,1845.4 482.6,1883.7 482.6,1845.2 470.2,1845.2 470.2,1904.8 529.8,1904.8 
			529.8,1892.4 491.3,1892.4 		"/>
		<polygon class="st1" points="595.2,1857.6 633.7,1857.6 595.3,1895.8 604,1904.6 642.4,1866.3 642.4,1904.8 654.8,1904.8 
			654.8,1845.2 595.2,1845.2 		"/>
		<polygon class="st1" points="720.2,1904.8 732.6,1904.8 732.6,1866.3 771,1904.6 779.7,1895.8 741.3,1857.6 779.8,1857.6 
			779.8,1845.2 720.2,1845.2 		"/>
		<polygon class="st1" points="892.4,1883.7 854,1845.4 845.3,1854.2 883.7,1892.4 845.2,1892.4 845.2,1904.8 904.8,1904.8 
			904.8,1845.2 892.4,1845.2 		"/>
		<polygon class="st1" points="1029.7,1854.2 1021,1845.4 982.6,1883.7 982.6,1845.2 970.2,1845.2 970.2,1904.8 1029.8,1904.8 
			1029.8,1892.4 991.3,1892.4 		"/>
		<polygon class="st1" points="1095.2,1857.6 1133.7,1857.6 1095.3,1895.8 1104,1904.6 1142.4,1866.3 1142.4,1904.8 1154.8,1904.8 
			1154.8,1845.2 1095.2,1845.2 		"/>
		<polygon class="st1" points="1220.2,1904.8 1232.6,1904.8 1232.6,1866.3 1271,1904.6 1279.7,1895.8 1241.3,1857.6 1279.8,1857.6 
			1279.8,1845.2 1220.2,1845.2 		"/>
		<polygon class="st1" points="1392.4,1883.7 1354,1845.4 1345.3,1854.2 1383.7,1892.4 1345.2,1892.4 1345.2,1904.8 1404.8,1904.8 
			1404.8,1845.2 1392.4,1845.2 		"/>
		<polygon class="st1" points="1529.7,1854.2 1521,1845.4 1482.6,1883.7 1482.6,1845.2 1470.2,1845.2 1470.2,1904.8 1529.8,1904.8 
			1529.8,1892.4 1491.3,1892.4 		"/>
		<polygon class="st1" points="1595.2,1857.6 1633.7,1857.6 1595.3,1895.8 1604,1904.6 1642.4,1866.3 1642.4,1904.8 1654.8,1904.8 
			1654.8,1845.2 1595.2,1845.2 		"/>
		<polygon class="st1" points="1720.2,1904.8 1732.6,1904.8 1732.6,1866.3 1771,1904.6 1779.7,1895.8 1741.3,1857.6 1779.8,1857.6 
			1779.8,1845.2 1720.2,1845.2 		"/>
		<polygon class="st1" points="1892.4,1883.7 1854,1845.4 1845.3,1854.2 1883.7,1892.4 1845.2,1892.4 1845.2,1904.8 1904.8,1904.8 
			1904.8,1845.2 1892.4,1845.2 		"/>
		<polygon class="st1" points="1982.6,1845.2 1970.2,1845.2 1970.2,1904.8 2000,1904.8 2000,1892.4 1991.3,1892.4 2000,1883.8 
			2000,1866.3 1982.6,1883.7 		"/>
	</g>
</g>
</svg>
